<?xml version="1.0" standalone="no"?><!DOCTYPE svg PUBLIC "-//W3C//DTD SVG 1.1//EN" "http://www.w3.org/Graphics/SVG/1.1/DTD/svg11.dtd"><svg t="1577345910296" class="icon" viewBox="0 0 1024 1024" version="1.1" xmlns="http://www.w3.org/2000/svg" p-id="1560" xmlns:xlink="http://www.w3.org/1999/xlink" width="128" height="128"><defs><style type="text/css"></style></defs><path d="M851.9 697.4c-21.5 69.7-59.6 128.9-110.2 180.8-13 13.3-25.6 26.7-42.7 34.7-26.2 12.4-53.4 14.1-81.3 6.6-3.6-1-7.3-2.6-10.5-4.5-34.8-21.6-72.6-30.2-113.3-27.6-25.9 1.7-49.7 10.2-71.9 22.8-40.6 23.2-97.8 14.8-132.8-15.5-35-30.3-61-66.9-85.5-105.2-30.9-48.8-46.2-103.5-58.7-159.1-8-35.7-11.8-72-10.1-108.6 2.4-51.9 12.7-102.2 43.4-145.1 31.1-43.4 69.4-79.3 123-93.2 48.2-12.5 94.3-5.7 138.1 18.3 37.4 20.5 76.6 24.8 116.8 9.1 15.1-5.9 28.9-15.1 44-21 27.3-10.8 55.8-14.2 85.3-11 45.1 4.9 83 23.7 114 56.4 7.9 8.3 14.3 18.1 21.7 26.9 3.6 4.3 2.6 6.5-1.9 9.5-23 15.1-42.1 34.3-56.3 57.9-21 34.9-30.1 72.5-26.2 113.4 2.4 25 10 48 21.1 70.3 19.1 38.3 49.7 64 88.2 81.1 1.7 0.8 3.5 1.6 5.2 2.4 0.3 0.2 0.6 0.6 0.6 0.6z" p-id="1561"></path><path d="M652.7 78.3c15.6 95.6-65.4 200.8-171.7 201.9-12.9-100.6 66.4-197.6 171.7-201.9z" p-id="1562"></path></svg>