<?xml version="1.0" standalone="no"?><!DOCTYPE svg PUBLIC "-//W3C//DTD SVG 1.1//EN" "http://www.w3.org/Graphics/SVG/1.1/DTD/svg11.dtd"><svg t="1577345887507" class="icon" viewBox="0 0 1024 1024" version="1.1" xmlns="http://www.w3.org/2000/svg" p-id="1399" xmlns:xlink="http://www.w3.org/1999/xlink" width="128" height="128"><defs><style type="text/css"></style></defs><path d="M248.9 853.9c-4.2 19.4-7.9 36.2-11.4 52.9-1.5 7.2 2.6 11.5 8.4 14.4 10.8 5.4 3 13.3 2.7 20.1-0.3 6.2-4.9 7.2-10.3 7.2-30-0.1-59.9 0.2-89.9-0.3-4-0.1-11.5-4-11.3-4.8 1.5-6.7 3-17.6 7.1-18.9 16.9-5.2 21.1-18.5 24.4-32.5 6.2-26 11.6-52.2 17.2-78.4 2.2-10.3 4.4-20.6 6.7-30.8 2.1-9.5 0-17.1-9.4-21.5-8.7-4.1-3.9-10.7-3.2-16.6 0.7-5.7 2.9-9.6 9.5-9.5 30 0.1 59.9 0.1 89.9 0.1 6.7 0 9.2 2.9 7.9 9.6-1.5 7.6-2.6 14.8-11.8 17.7-3.1 1-6.7 4.9-7.6 8.1-5 19.6-9.3 39.4-11.9 60 23.9-19.9 47.9-39.8 71.7-59.8 3.9-3.3 4.4-7.2-0.5-10.1-9.6-5.6-3.5-13.3-1.8-19.4 0.8-2.9 7-5.8 10.9-5.9 25.5-0.5 51-0.5 76.5 0 3.5 0.1 10.2 3.8 10 5.1-0.9 6.7 1.6 17.2-7.6 18.5-18.7 2.7-31.7 13.8-45.2 25.2-18.2 15.4-36.6 30.6-55.6 46.5 2.2 3.2 4.1 6.1 6.1 8.8 15.7 21.3 31.3 42.7 47.1 63.9 7.5 10 14.9 20.3 29.4 20.3 1.4 0 4 1.4 4 2-0.1 5.9-0.2 11.8-1.5 17.5-0.5 2.1-4.5 4.8-6.9 4.9-17.8 0.2-35.7 0.4-53.5-0.4-22-1-38.9-12.1-50.9-29.8-11.8-17.4-22.1-35.7-33.1-53.7-1.7-2.6-3.2-5.4-6.1-10.4zM512 827h57.2c14.7 0 15.4 0.9 12.1 15.4-5.6 24.4-5.6 24.4-30.8 24.4-13.1 0-26.2 0.4-39.2-0.1-6.5-0.3-9 2.1-10 8.3-1.5 9.1-3.7 18.1-5.7 27.1-1.9 8.2 0.4 14.9 7.7 18.8 11.1 5.9 3.2 13.9 2.7 21s-6.2 6.8-11.5 6.7c-22.3-0.1-44.7 0-67 0-12.8 0-13.9-1.4-11.2-13.8l33-149.4c3-13.6 2-16.8-9.9-24.5-7.2-4.6-3.6-10.4-2-15.3 1.2-3.8 4.8-7.2 8.1-9.8 1.6-1.3 4.9-0.4 7.5-0.4 54.2 0 108.5 0 162.7 0.1 13 0 13.6 0.8 10.8 13.9-2.7 12.5-5.9 24.8-8 37.4-1.5 8.8-5.2 12.2-14.5 12-9.5-0.2-15.8-0.8-15.2-13 0.4-9.3-6-14.5-15.4-14.7-14.7-0.3-29.3-0.3-44 0-2 0-5.4 2.5-5.8 4.4-4.2 16.6-7.7 33.4-11.6 51.5zM736.2 952.1c-27.9-0.6-54.8-4.5-79.4-18.6-31.9-18.3-48.2-52.6-42.9-89.1 7.8-53.1 37.7-87.4 88.7-102.9 39.2-11.9 79.1-12.3 119.1-3.1 8.6 2 10.8 6.1 8.8 14.3-3.4 13.9-6.5 27.9-9.4 42-2.5 12.5-12.3 7.1-19.3 8-6.9 0.9-8-3.7-8.4-9.6-1.1-15.8-10.8-24.7-27.8-25.8-29.4-1.9-51.9 10.8-65.3 36.3-6.7 12.9-10.9 28.1-12.1 42.7-2.8 34.3 19.7 61 54.5 63.9 19 1.6 38.6-1.6 57.7-4.2 11.8-1.6 13.5-1.3 11.6 10-4.3 26.7-4.3 27-31.2 31.2-14.8 2.2-29.8 3.3-44.6 4.9z" p-id="1400"></path><path d="M657.8 582.5c-6.3-0.5-12.4 1.1-18.6 1.9-7.1 0.7-14.3 1.5-21.3 3-6.1 0.3-12.2 0.9-18.1 2.3-7.6 0-15 1.8-22.5 3-5.9 0.1-11.7 0.8-17.4 2.5-6.7-0.4-13.1 1.8-19.6 2.6-3.6 0.5-7.2 0.7-10.7 1.4-8.4 1.7-16.7 3.3-25.1 4.9-10.4 2-20.9 3.8-31.3 6-10.1 2.1-20.1 4.6-30.2 6.8-8 1.7-16 3.9-23.8 6.1-10.7 3.1-21.6 6-32.1 9.9-13.4 5-27.1 9.3-40.6 14-5.9 2-11.7 4.6-17.7 6.3-4.6 1.4-7.9-1.4-8.2-6.1-0.7-11.3-1.2-22.6-1-33.9 0.4-22.5 2.5-44.8 5-67.1 1.1-9.6 1.8-19.4 4.5-28.9 0.5-1.8-0.1-2.5-2-2.2-3.3 0.6-5.3 2.8-6.4 5.6-4.3 11-6.3 22.7-9 34.2-2.2 9.5-3.9 19.1-6.1 28.6-2.5 10.6-4.3 21.4-6.3 32.1-1.7 9-2.9 18.1-4.1 27.1-9.4-6.7-18.6-13.7-26.6-22.2 2.9-11 5.8-22.1 8.8-33.1 2.7-10 5.7-20 8.4-30 1.4-5.2-0.1-9.2-3.9-10.2-3.3-0.9-6.7-1.4-10.1-2.1-6.3-2.5-12.4-1.5-18.3 1.4-10.6 5.3-21.2 10.6-31.8 16.1-2.3 1.2-3.7 1.2-5.1-1.2-1.8-3.3-4.5-6-5.8-9.6 0.9-0.2 1.9-0.2 2.6-0.7 7-5.7 15.3-9.2 23.1-13.5 15.3-8.4 31.2-15.6 47.2-22.4 8.8-3.8 18.8-5.5 24.8-14.3 0.9-1.3 1.4-2.8 3-3.8 6-3.8 11.8-7.8 18.4-10.4 5.5-2.2 7.7-6.1 8.9-11.2 2.6-11.7 5.3-23.3 9.4-34.6 1.5-4.2 0.6-6.6-1.8-9.5-9-11.4-16-23.8-20.8-37.6-1.5-4.3-3.7-8.1-8.7-9.6-2.6-0.8-5.1-2.6-7.4-4.2-7.5-5.4-10-13.1-9.7-22 0.2-5.8-0.5-11.7-4.8-15.9-14-13.9-23.8-30.3-30.4-48.7-3.1-8.5-3.6-17.3-0.6-26 0.9-2.6-0.2-4.1-1.7-5.5-3.7-3.5-7.3-7.1-11.2-10.4-5.1-4.3-6.3-10-4.3-15.5 3.1-9 4.9-18.2 5.8-27.6 0.9-9.1 0.4-18.1-3.7-26.4-4.3-8.9-11.9-15.9-15.1-25.5 0.6-7.2 5.2-11.2 10.7-15.2 12.7-9.3 22.8-21 29.7-35.3 2.9-6.1 3.6-12.2 0.6-18.7-2.8-6-1.5-8.8 4.5-11.4 2.6-1.2 5.3-2.1 8-3 12.4-3.9 24-9.6 35.2-16.1 18.9-11 38.9-19.9 59.9-26.1 28.7-8.5 57.5-7.3 86.3-0.6 2.6 0.6 5.3 0.9 8 1.3 0.4 1 1.3 1.3 2.1 1.6 17.4 4.8 33.4 12.5 48.6 22.1 17.5 11.1 31 26 41.8 43.5 8.6 13.8 14.8 28.6 18.5 44.5 1 4.2 0.7 9.3 4.8 12.3 6.5 4.8 7.1 11.9 7.3 19 0.3 10.6-1.9 20.8-4.7 31-1.4 5-1.3 9.6 3.1 13.6 5.4 4.9 8 11.4 9.1 18.5 1.7 11 0.6 21.8-1.6 32.7-2.2 10.8-4.7 21.4-9.1 31.4-5 11.5-6.9 23.2-5.3 35.5 0.6 4.9-0.7 8-4.9 10.4-4.4 2.6-7 6-6.5 11.7 0.9 11-0.9 21.9-2.5 32.8-0.4 2.8 0.3 5.1 2.4 6.9 5.2 4.4 9.9 9.2 14.2 14.4 1.2 1.5 2.4 3.5 4 4.1 7.4 2.7 15 5.1 22.5 7.5 9.9 3.2 20.3 5.1 28.7 11.9 1.5 1.2 3.5 2.5 5.7 2.5 6.8 0 13.5 1.1 20.2 1.7 18.4 1.6 36.8 3.4 55.2 5.4 15.8 1.7 31.4 4.7 47 7.3 11.1 1.9 21.4 5.7 31.5 10.5 4.3 2.1 7.5 5.7 12.1 7 0.6 3.8-1.4 7-2.6 10.4-1 2.9-2.4 0.3-3.3-0.3-8.4-6-17.6-10.5-27.3-14-12.1-4.3-24.7-5.7-37.3-6.9-28.7-2.6-57.5-4.5-86.2-6.6-8.5-0.6-9.2 0.5-5.6 8.5 18 39.8 36.1 79.6 54.2 119.4 5.1 11.2 10.1 22.5 15.3 33.8 0.8 1.8 1.2 3.1-0.7 4.7-4.9 4.2-9.4 8.8-14.8 12.4-0.2-1.3-0.3-2.8-0.8-4-3.5-8.4-7.1-16.6-10.5-25-6.5-15.9-12.9-31.8-19.3-47.8-6.8-17-13.7-34-20.4-51.1-6.2-15.7-12.5-31.4-18.3-47.2-2.8-7.7-6.5-13.9-15.4-15.5-3.7-0.7-6.1 0.8-5.1 4.2 2.9 10 6.1 20 9.1 30 2 6.7 4.1 13.4 5.8 20.2 1.8 6.8 3.3 13.7 4.9 20.5 2 8.7 4.2 17.4 6 26.2 1.7 8.4 2.9 16.8 4.7 25.2 1.5 7.1 1.6 7.1 9 7 4.6-0.1 9.1 0.6 13.5 2.6-1.7 2.4-3.8 2.7-6.2 2.8-3.9 0.1-8-0.1-11.8 1.9zM526.6 284.2c4.4-4.5 8.8-9 10.1-15.6 1.3-6.6 0.7-7.5-5.8-7.5-2.7 0-5.5 0.5-7.7-1.6-3.2-5.5-4.8-6.1-10.6-4.2-2.6 0.8-5.2 1.7-7.7 2.5-11.2 3.6-22.2 3.7-33.1-1-1.5-0.7-3.4-1.7-4.6-0.2-1.2 1.6 0.5 3.2 1.5 4.3 3.1 3.5 0.7 5.7-1.6 8-2.6 2.6-5.1 2.7-7.8 0.1-3.6-3.4-5.7-7.7-7.5-12.2-2-4.9-6-7.2-11.2-6-2 0.4-3.9 1.4-5.9 2.1-2.3 0.6-3.4 2.3-4.3 4.3-1.6 4-2.6 8.1-1.9 12.3 1.9 12.1 1.1 24-1.4 35.9-0.8 3.6 0.1 6.9 2.1 9.9 3.1 4.5 6.8 8.3 12.1 10.4 1.4 0.6 2.7 1.4 4.1 1.9 14.4 5.1 25.8-0.9 36.4-9.9 3-2.6 3.5-5.4 2.1-8.9-0.9-2.4-2.3-4.6-1.7-7.4 7.9-2.1 14 1.9 20 6 5 3.4 8.5 8.5 12.8 12.8 4.2 4.2 8.6 8.4 14.4 9.9 6.9 1.8 10 6.2 10.8 12.8 0.1 1 0.5 2 0.8 3 0.1 3.5 0.3 6.9 0.4 10.4 0.2 5.7-0.3 11.5-3.9 16-4.7 5.9-5.7 12.4-5.9 19.4-0.2 4.2-0.3 8.5-3.2 12-2.3 2.8-3.9 2.6-5.2-0.6-1.6-3.9-2-8.2-2.8-12.3-1.7-10-8.1-13.7-17-9.2-13.9 7.1-28.5 10.3-44.1 10-5.4-0.1-10.4 1.8-15 4.5-1.8 1.1-4.8 2.3-4.3 4.7 0.5 2.6 3.6 3 6 3.2 4.3 0.4 7.4 2.1 8.7 6.5 0.2 3.6 1.6 7.1 0.8 10.8-0.2 0.8-0.5 1.9-1.1 2.3-0.9 0.5-1.6-0.6-2.1-1.3-2-2.2-3.9-4.6-6-6.8-0.9-1-2.3-2-3.6-1.1-1.1 0.8-0.3 2.1 0.1 3.3 2.9 8.5 3.3 17.1 1.5 25.8-2.7 12.9-2.3 25.1 7.1 35.7 9.1 10.4 20.4 17.7 31.6 25.4 0.7 0.5 1.6 0.8 2.5 1 2.7 0.6 4.3 0.1 4-3.3-0.3-4.5 1.1-8.6 3.1-12.6 1.6-3.1 3.3-6.1 5-9.1 4.1-6.8 6.7-13.8 3.1-21.8-0.8-1.8-0.5-3.2 1.3-4.2 1.1 0.7 2.4 1.4 3.4 2.3 3.5 3.1 7.3 3 10.8 0.6 17.5-11.9 32.2-26.5 41.2-45.9 9.8-21.1 10.7-43.7 7.5-66.1-1.4-9.6 3.2-16.5 5.7-24.5 0.5-1.5 1.4-2 2.4-0.1 0.8 1.5 1.1 3.9 3.6 3.2 2.3-0.6 2.3-2.9 2.6-4.8 1.3-8.4 3.5-16.5 6.5-24.4 4.2-11 7.3-22.4 8.4-34.1 0.8-8.2 0.9-16.3-2.4-24.1-1.1-2.7-2.8-5.1-6.3-5-3.4 0-5.5 1.9-7.2 4.7-1.7 2.9-0.3 5.2 1.4 7.4 4.2 5.7 4.2 8.4-0.3 13.5-1 1.1-2 2.7-3.6 2.2s-1.7-2.3-2-3.8c-1-5.8-1.9-11.6-3-17.4-2.3-11.8-3-11.9-13.1-5.7-5.1 3.1-7.4 7.1-7.4 12.9 0 3.9-0.6 7.8-1 11.7-1.1 9.8-3.1 19.5-10.2 27-2.6 2.8-5.1 6.1-9.6 6-1.5-1.7-2.3-3.8-2.8-6z m-115.2-1.8c-3.4-1.4-5.8-3.8-7.3-7.2 0.9-1.4 1.7-2.8 2.6-4.2 0.6-1 1.7-2 0.8-3.2-1.1-1.3-2.3-0.2-3.2 0.4-2.2 1.3-4.6 2.2-7.1 2.8-5.8 1.6-11.7 0.7-17.5 0.6-9.3-0.1-16.2 3.7-21.3 11.2-3.4 5-5.4 5.4-10.7 2.3-1-0.6-2-1.4-3-2-3.9-2.1-6.2 1-8.7 2.9-2.3 1.7-0.9 3.7 0.2 5.6 4.1 7.1 9.7 12.6 17.4 15.8 1.8 0.8 3.8 1.2 4.8 3.1-1 7.5-2.8 8.6-9.8 5.7-0.8-0.3-1.6-0.8-2.5-1.1-1.3-0.5-2.8-2.2-4.1-0.9-1.4 1.4-0.1 3.1 0.6 4.6 4.1 8.8 10.6 15.8 18.2 21.6 4.4 3.5 9.8 3.2 14.3-0.2 2.1-1.6 3.9-3.7 5.9-5.6 3.4-3.1 7.4-5.3 11.4-7.5 2-1.1 3.5-2.4 3.6-4.7 0.2-5.2 2.6-9.5 5.1-13.7 6.3-5.8 12.6-11.5 15.4-20 1.2-3.6 2.3-7.3 1.1-11.5-2.4 2-4.3 3.6-6.2 5.2z m28.2 270.3c1.1-1.8 2.2-3.5 3.2-5.4 0.7-1.3 2.2-2.7 1.1-4.1-1-1.4-2.8-0.5-4.2-0.2-7 1.1-13.7 3.5-20.9 3.2-6.2-0.2-9.2-2.8-10-8.8-1-8.5-1.8-17-2.7-25.6 1.1-1.3 2.3-2.5 3.4-3.8 5.3-2.3 10.7-3.8 16.5-4.5 1.9-0.3 5 0.4 5.4-2 0.4-2.5-2.7-2.8-4.4-3.8-0.1-0.1-0.3-0.1-0.4-0.2-19.3-8.1-37.3-18.3-52.8-32.5-2.2-2-3.7-1.5-4.9 1-1.8 3.9-2.4 8-1.9 12.3-0.6 7.7 0.1 15.4 2.2 22.8 8.4 30.4 22.3 57.7 44.3 80.7 2 2.1 4 4.2 3 7.5-3.6 0.9-5.7-1.8-7.8-3.6-13.9-12-26-25.5-35.2-41.5-5.6-9.8-10.9-19.8-16.3-29.7-1.1-2-1.6-5.3-4.8-4.3-3.1 0.9-6.4 2.3-6.9 6.3-0.4 3.3-0.6 6.6-0.9 9.9-1.8 18.1-0.2 36.1 1.2 54.1 0.7 8.6 1.9 17 4.2 25.3 1.6 6 3.9 7.6 10.1 6.8 1.5-0.2 3-0.5 4.5-0.7 12.4-2.3 24.9-4.5 37.3-6.8 11.7-2.1 23.4-4.3 35-6.4 7.3 0.4 12.4-2.8 15.3-9.5 2.8-6.5 5.8-12.9 8.5-19.5 3.8-9.2 7.4-18.5 9.4-28.3 0.3-1.5 0.9-3.2-0.6-4.2-1.5-1.1-2.9 0.2-4.1 0.9-4.3 2.6-8 5.9-11.1 9.8-7.9 7.5-13.7 16.6-19.2 25.9-0.6 1.1-1.3 2.9-3 2-1.2-0.6-0.5-2.2-0.2-3.3 1.6-6.9 4.4-13.4 7.7-19.8z m178.5 24.7c3.6-0.3 7.2-0.5 10.7-1.1 6.4-1.1 7.1-2.3 6.2-8.9-4.4-29.6-9.1-59.2-15.1-88.6-2-9.7-4.1-19.4-6.5-29.1-1.1-4.4-2.8-8.7-7.1-11-2.3-1.3-4.1-0.9-4.3 2.2-0.2 3-0.2 6-0.4 9-0.2 0.7-0.5 1.4-0.5 2.2-1.6 20.1-5.5 39.7-11.2 59-3.4 11.7-6.9 23.4-13 34.1-0.7 1.2-1.6 3.2-3.3 2.4-1.6-0.8-0.7-2.6-0.2-4 4.5-13.6 7.6-27.6 9.9-41.8 3.7-22.9 5.6-45.9 0.5-68.9-1.2-5.6-3.2-10.7-7.2-14.9-2-2.1-3.4-2.2-4.4 0.9-2.3 7.1-5.5 13.7-9.5 20-12.1 19.4-27.8 35.3-46.2 48.6-1.4 1-4.1 1.9-3.3 3.6 0.9 1.9 3.1 0.1 4.7-0.3 7.7-2.1 15.5-3.8 23.6-3 4.1 0.4 6.2 2.8 6.7 6.7 0.9 7.3 1.8 14.7 2.7 22 0.9 8.1-1.9 11.6-10.1 12-4.4 0.3-8.8 0-13.1 0.1-1 0-2.3-0.4-2.9 0.7-0.8 1.4 0.6 2.2 1.4 3 5.2 5 10.5 10 15.7 15 3.5 3.4 6.9 6.8 9.6 10.8 0.9 1.4 3 3.4-0.6 4.5-1.1-0.7-2.3-1.4-3.4-2.2-11.1-8.5-22.8-16.2-35.1-22.7-4-2.1-8.1-3.9-12.2-5.8-1.2-0.5-2.4-0.6-3.3 0.6-0.9 1.1 0.1 2 0.6 2.8 1.6 2.7 3.3 5.3 5 7.9 6.1 12.3 10.8 25.1 13.2 38.7 1.2 6.4 1.3 6.5 7.9 5.7 30.5-3.9 61.1-6.9 91.7-10l0.4 0.1 0.3-0.2c0.8 0.1 1.4 0 2.1-0.1zM349.8 232.8c6.3-0.5 12.6-1.1 18.9-1.6 18.4-1.7 36.6-1.7 52.5 9.9 2.8 2 6 1.9 9 0.4 5-2.5 10.4-3.4 15.8-2.7 4.3 0.5 7.2-1.1 9.9-4 5.3-5.6 11.8-9.2 19.2-11.4 14-4.2 28.4-5.2 42.8-7.1 14.6-1.9 29.2-2.6 43.8-1.4 2.5 0.2 4.3-0.4 3.7-3.4-1.5-7.2-2.3-14.8-7.4-20.6-7.6-8.8-13-18.3-13.2-30.3-0.1-6.7-3.5-13.1-2.8-20 2.2-0.1 3 1.8 4 3.2 9.9 15 19 30.4 26.9 46.6 0.6 1.3 1 3.3 2.9 2.9 1.6-0.3 2.1-2 2.3-3.6 0.2-1.3 0.2-2.7 0.3-4.1 0.4-11.6-1.5-22.9-3.8-34.1-7.7-37.7-26.6-68.7-59.6-88.7-53-32-107.9-32-163.2-4.9-3.2 1.6-6.3 3.5-8.8 6.3-0.6 0.7-1.6 1.6-0.8 2.8 0.6 0.9 1.6 0.7 2.5 0.6 2.9-0.2 5.7-0.6 8.5-0.8 1.4-0.1 2.8 0.4 3.1 2 0.3 1.5-0.4 2.7-1.7 3.3l-2.4 1.2c-12.9 5.7-23.7 14.4-33.7 24.1-1.4 1.4-2.7 2.9-3.7 4.5-1.5 2.3-0.2 3.4 2.1 3.4 1.1 0 2.3-0.6 3.4-1 16.3-6.3 33-10.5 50.5-11.1 22.5-0.8 42.6 6.5 61.1 18.9 1.4 2.1 1 3.9-0.8 5.6-1.6 1.5-3.3 3.1-4.6 4.9-2.7 3.8-5.9 4.1-10.2 2.7-14.8-5.1-29.8-4.8-44.8-0.5-8.5 1.5-14.9 6.3-19.9 13-6.1 8.3-10.5 17.5-13.7 27.3-4.7 14-5.7 28.6-6.1 43.2-0.1 3.4-0.4 6.6-3.6 8.8-7 4.7-5.7 9.8-4.2 17.3 0.5 2.4 2.4 2.9 4.6 2.4 7-1.2 14.1-2.6 21.2-4z m-69-28.7c-0.3 6.7 0.5 14.5 1.1 22.3 0.7 8.6 2.2 17 5.5 25.1 0.6 1.5 1.1 3.2 3.2 3.5 4.7 0.5 9.9-4.9 9.2-9.8-2.1-15.2-1.8-30.4 0.3-45.6 1.5-11.1 4.2-21.6 13.5-29.1 2.5-2 3.7-5.1 4.8-8.1 6.5-17.4 16.5-32.1 33-41.7 1-0.5 2.5-1.1 2-2.6-0.5-1.4-2-1-3.2-0.9-6.1 0.5-11.7 2.5-17.2 5.2-12 5.8-21.5 15-31.5 23.5-7.5 6.3-15.8 11.1-25.2 13.8-9.9 2.8-10.5 3.2-3.8 11.4 6.5 8 9.2 16.8 8.4 26.9-0.2 1.5-0.1 3.2-0.1 6.1z m148.1 137.6c-5.2 0.1-9.4 1.9-12.3 6.5-3.5 5.7-7.9 10.7-14 13.8-1.3 0.7-3.2 1.1-3 2.9 0.2 2 1.9 2.9 3.7 3.6 5 2 9.9 0.5 14.6-1.1 17.6-6.2 35.9-8.8 54.4-10.7 14.9-1.5 29.8-1.5 44.7-2.5 3.1-0.2 6-0.9 8.1-3.4 2.3-2.6 1.8-5.2-1.5-5.6-7.9-1-13-5.8-17.6-11.6-3-3.8-6.2-7.4-10.4-10-3-1.9-5.6-2.1-8.4 0.8-3.7 3.9-8 7.3-13.2 9.2-2.2 0.8-3.7 2.4-4.8 4.6-2.7 5.4-7.2 7.7-13.2 7.8-7.5 0.1-14.8-0.2-21.7-3.3-1.7-0.6-3.6-0.7-5.4-1z m-68.3 38.2c0.2 1.4 0.3 3.1 0.7 4.7 2 8.6 6.2 16.3 10.8 23.8 8.1 13.3 18.2 24.5 32.9 30.6 4.5 1.9 9.2 3.1 14.1 2.6 4.2-0.4 5.8-2.7 4-6.1-4.2-8.2-7.5-16.8-10.9-25.3-0.4-1-1-1.9-2.3-1.8-1.2 0.1-1.9 1-2.2 2-0.7 2-1.1 4.1-1.8 6-0.5 1.5-0.3 3.5-2.5 3.9-1.9 0.3-3-1.2-4.1-2.4-3.3-3.4-5.5-7.6-7.4-11.8-5.7-12.5-9.8-25.6-12.4-39.1-1.1-5.5-3.5-6.7-8.7-4.7-8.2 3.2-9.4 10.2-10.2 17.6z m131.8-7.1c-0.9-0.7-1.1-1.2-1.5-1.3-0.7-0.2-1.5-0.2-2.2-0.2-16 0.7-31.9 2.2-47.4 6.3-1 0.3-2.3 0.4-2.4 1.6-0.1 1.2 1 1.7 1.9 2.3 4.2 2.5 8.8 3.1 13.5 2.1 5.9-1.2 11.9-2.1 17.7-3.4 7-1.5 13.8-3.7 20.4-7.4zM379.7 248c-3.6-0.1-6 1.2-8.4 2.4-7.8 3.7-13.7 10.3-21.2 14.5-1 0.5-1.7 1.5-1.3 2.6 0.5 1.3 1.9 1.4 3.1 1.3 4.2-0.4 7.6-2.6 11-4.8 7.5-4.8 15.2-8.6 24.4-7.9 1.1 0.1 2.3 0.2 2.7-1.1 0.4-1.1-0.4-2-1.1-2.8-2.5-3.2-6.1-4-9.2-4.2z m123-13.5c-5.7-0.1-11.1 2.6-14.9 7.1-0.9 1-2.1 2.1-1.1 3.5 0.9 1.2 2.3 0.5 3.3 0.1 8.7-4.1 16.8-3.4 24.7 2.1 3 2.1 6.5 3.1 10.3 3 1 0 2.3-0.2 2.5-1.5 0.3-1.4-1.1-1.5-2-1.9-4.6-2-8.5-5.1-12.6-8-3.2-2.5-6.9-4.1-10.2-4.4z m-201.1 31.4c-5.1-0.2-8.6 4.2-6.9 8.8 2.4 6.7 5.8 12.9 10.2 18.5 1.1 1.3 2.2 2.7 4.1 1.8 1.9-1 1.5-2.7 0.9-4.3-2.6-7.1-5.3-14.1-5.8-21.7-0.1-1.5-0.6-3.2-2.5-3.1z m27.7-3.2c0.2 1.5 0.5 2.9 2.1 3.7 2.1 1 3.8 0.2 5.4-1.1 4.8-3.9 9.5-7.8 14.3-11.7 1.1-0.9 2.3-1.8 1.4-3.3-0.8-1.4-2.2-1.3-3.6-0.9-3.9 1-7.9 1.8-11.7 3.1-4.8 1.6-6.9 5.5-7.9 10.2z m82 54.2c0.1 4.8 1.8 8.7 5.7 11.3 1.8 1.2 4 2 5.8 0.3 1.6-1.5 0.6-3.4-0.3-5-2-3.6-2.5-7.3-1.9-11.3 0.5-3.7-1.4-5.2-4.9-3.7-3.8 1.6-4.2 5-4.4 8.4z m111.8-90c-2.5 0.3-5.1 0.6-7.6 1-0.8 0.1-1.5 0.5-1.6 1.3-0.1 0.8 0.6 1.2 1.3 1.6 4.6 2.6 9.1 5.4 13.7 7.8 1.7 0.9 4 2.2 5.8 0 1.8-2.3 1.3-4.9-0.3-7.1-2.8-3.8-6.9-4.6-11.3-4.6zM484 572.7c-2 4.3-3.3 8.7-5.2 12.9-1.1 2.5-4.7 5.2-3 7.2 1.8 2.1 5.6-0.4 8.6-0.4 0.3 0 0.6-0.1 0.9-0.1 2.1-0.4 3.3-1.8 2.9-3.8-0.9-5.4-1.8-10.7-4.2-15.8zM312.5 259.8c1.4-0.2 3.4-0.5 5.3-0.9s5 0.7 4.4-3.3c-0.5-3.1-1.2-5.6-5.4-4.2-1.8 0.6-3.8 0.9-5.8 1-2.5 0.2-2.5 1.8-2.1 3.5 0.5 1.7 0 4.3 3.6 3.9z m236.4-37.3c-1.6 0.2-3.2 0.4-4.9 0.5-2.5 0.1-3.7 0.9-3.3 3.9 0.3 3 1.8 3.4 4.2 3.1 1.5-0.2 3-0.2 4.5-0.3 2.9-0.2 4.7-1 4.5-4.6-0.3-4.2-3-2.3-5-2.6z" fill="#040303" p-id="1401"></path><path d="M821 471c-4.6-1.3-7.9-5-12.1-7-10.1-4.9-20.3-8.6-31.5-10.5-15.6-2.7-31.2-5.7-47-7.3-18.4-1.9-36.8-3.7-55.2-5.4-6.7-0.6-13.4-1.6-20.2-1.7-2.2 0-4.2-1.2-5.7-2.5-8.4-6.8-18.8-8.8-28.7-11.9-7.5-2.4-15.1-4.8-22.5-7.5-1.6-0.6-2.7-2.6-4-4.1-4.4-5.2-9.1-10-14.2-14.4-2.1-1.8-2.9-4-2.4-6.9 1.6-10.9 3.4-21.8 2.5-32.8-0.5-5.7 2.1-9.2 6.5-11.7 4.2-2.4 5.5-5.6 4.9-10.4-1.6-12.3 0.3-24 5.3-35.5 4.4-10 6.9-20.6 9.1-31.4 2.2-10.9 3.3-21.7 1.6-32.7-1.1-7.1-3.8-13.7-9.1-18.5-4.4-4-4.5-8.6-3.1-13.6 2.8-10.2 5.1-20.4 4.7-31-0.2-7.1-0.9-14.2-7.3-19-4.1-3-3.8-8.2-4.8-12.3-3.7-15.9-9.9-30.7-18.5-44.5C558.5 80.9 545 66 527.5 54.9c-15.2-9.6-31.2-17.3-48.6-22.1-0.8-0.2-1.7-0.6-2.1-1.6 1-0.2 2-0.6 3-0.6 28-1.2 55.8 0.4 83.4 5.9 54.3 10.7 103.2 33.2 146.3 67.9 58.7 47.2 98 107.2 117.1 180.1 15.9 60.8 14.6 121.6-3 182-0.7 1.6-1.2 3.3-2.6 4.5z m6.5-134.8c1.1-1 1.5-2.2 1.1-3.6-0.5-1.8-1.6-2.7-3.5-3-5.4-0.9-0.3 4.8-3.4 5.3 0.4 0.3 0.8 0.7 1.2 1 1.5 1.2 3 1.8 4.6 0.3z m-193.5 22c1.5-5.4 2.5-9.4 3.8-13.4 1.3-4.3 1.1-9.5 6.8-11.4 1.1-0.4 1-1.8 1-2.8 0-1.3-1.2-1-2.1-1h-26.7c-1.4 0-2.2 0.3-2.6 1.8-0.4 1.4-0.3 2.2 1.1 2.8 3.3 1.3 3.2 4 2.5 6.8-3.3 12.1-6.6 24.1-10 36.1-1.2 4.4-2.5 8.8-8 10-1.4 0.3-1.6 1.7-1.6 3 0 1.7 1.3 1.4 2.3 1.4h28.1c1.4 0 2.2-0.4 2.5-1.9 0.3-1.4 0.6-2.5-1.2-3.2-1.6-0.6-2.9-1.9-2.4-3.9 1.5-5.9 3.2-11.8 5-18.3 5 6.8 9.5 13 14 19.2 2.8 3.8 6.2 6.5 11 7.4 6.9 1.2 13.8 0.7 20.8 0.7 1.8 0 2.3-1.1 2.5-2.6 0.3-1.8-1-1.8-2.1-2.2-2.8-0.9-5-2.9-6.6-5.3-4.7-7-9.3-14.1-14-21.1-1.2-1.8-1-2.8 0.7-4.1 4-3 7.7-6.4 11.7-9.3 6.5-4.6 11.6-11.1 19.5-13.7 1.4-0.5 1.3-2.1 1.4-3.8H661c-1.3 0-2.4 0.1-2.7 1.7-0.2 1.3-0.2 2.2 1.3 2.9 2.6 1.2 2.4 2.8 0.3 4.4-8.5 6.5-16.7 12.8-25.9 19.8z m176.3 19.5c-7 2.1-13.5 3.4-20.2 2.7-9.3-1-17-7.1-18.7-14.7-1.8-8.4 1.8-17 9.9-20.9 10-4.8 20.3-6.9 30 1.2 1.7 1.4 3 1.3 3.6-1.1 0.9-3.5 1.7-7.1 2.9-10.4 0.9-2.5-0.1-3.3-2.2-3.7-3.1-0.6-6.2-1.3-9.4-1.5-18.3-1.2-35.4 1.8-48.7 15.6-16.2 16.7-10 39.5 12.3 46 11.9 3.5 23.9 2.1 35.9 0.1 1-0.2 2.1-0.5 2.4-1.8 0.6-3.8 2.1-7.3 2.2-11.5z m-57-48.2h-51.9c-1.1 0-2.2-0.2-3.2 0.1-2.2 0.6-3 3.1-1.4 3.9 5.3 2.6 3.4 6.3 2.4 10-4 14.7-8.1 29.3-12.1 44-0.4 1.4-2.3 4 1.7 3.9 7.7-0.1 15.4 0 23.1 0 1.3 0 2.3-0.3 2.7-1.7 0.4-1.4 0.7-2.5-1-3.4-2.4-1.3-2.7-3.5-2-5.9 1.1-4.1 2.2-8.1 3.3-12.2 0.4-1.5 0.8-2.5 2.6-2.4 4.5 0.1 9 0.1 13.6 0.2 2.2 0 4.5 2.9 5.9 1.6 1.5-1.4 1.4-4.4 2-6.8 0.3-1.3 0.6-2.7 1-3.9 0.8-2.1 0.3-3-2.1-2.9-3.5 0.1-6.9 0-10.4 0-8.5 0-8.3 0-6.3-8.1 0.7-2.9 1.7-4 4.8-3.9 4.7 0.3 9.4 0.1 14 0 2.5 0 4.8 0.4 6.4 2.6 2 2.6 2.8 1.2 3.3-1.1 1.1-4.5 2.3-9 3.6-14zM233.7 156.3c3.2 9.6 10.8 16.6 15.1 25.5 4.1 8.4 4.5 17.4 3.7 26.4-0.9 9.4-2.7 18.6-5.8 27.6-1.9 5.5-0.7 11.3 4.3 15.5 3.9 3.3 7.5 6.9 11.2 10.4 1.6 1.5 2.6 3 1.7 5.5-3 8.7-2.4 17.5 0.6 26 6.6 18.4 16.4 34.8 30.4 48.7 4.3 4.3 5 10.1 4.8 15.9-0.3 9 2.2 16.6 9.7 22 2.3 1.6 4.7 3.4 7.4 4.2 5 1.5 7.2 5.4 8.7 9.6 4.8 13.7 11.8 26.2 20.8 37.6 2.3 3 3.3 5.4 1.8 9.5-4.1 11.2-6.8 22.9-9.4 34.6-1.2 5.1-3.4 9.1-8.9 11.2-6.5 2.6-12.4 6.6-18.4 10.4-1.6 1-2.1 2.5-3 3.8-6 8.8-16 10.5-24.8 14.3-16 6.9-31.9 14-47.2 22.4-7.8 4.3-16.1 7.8-23.1 13.5-0.6 0.5-1.7 0.5-2.6 0.7-9.5-13.5-16.9-28.2-23.6-43.1-21.6-47.9-31.4-98.1-29.5-150.5 2.7-74.1 27.1-140.4 72.8-198.8 1.1-0.9 1.8-2.4 3.3-2.9z" fill="#A2090D" p-id="1402"></path><path d="M295.3 642.8c1.2-9.1 2.5-18.2 4.1-27.1 2-10.7 3.8-21.5 6.3-32.1 2.2-9.5 3.9-19.1 6.1-28.6 2.6-11.5 4.6-23.2 9-34.2 1.1-2.8 3.1-5.1 6.4-5.6 2-0.3 2.6 0.3 2 2.2-2.6 9.5-3.4 19.2-4.5 28.9-2.5 22.3-4.6 44.6-5 67.1-0.2 11.3 0.3 22.6 1 33.9 0.3 4.7 3.5 7.5 8.2 6.1 6-1.8 11.8-4.3 17.7-6.3 13.5-4.7 27.2-9 40.6-14 10.5-3.9 21.3-6.9 32.1-9.9 7.9-2.2 15.8-4.4 23.8-6.1 10.1-2.2 20.1-4.7 30.2-6.8 10.4-2.2 20.8-4 31.3-6 8.4-1.6 16.7-3.3 25.1-4.9 3.5-0.7 7.2-0.9 10.7-1.4 6.5-0.9 12.9-3 19.6-2.6 2.4 19 4.8 38 7.3 57 1.9 14.6 4.1 29.3 6.2 43.9 0.5 3.1 0.6 5.2-3.5 6-99.7 19.9-191 1-273.8-58.3-0.3-0.5-0.6-0.9-0.9-1.2z" fill="#A1090D" p-id="1403"></path><path d="M657.8 582.5c3.8-2 7.9-1.8 12-1.9 2.4 0 4.5-0.4 6.2-2.8-4.4-2-8.9-2.6-13.5-2.6-7.3 0.1-7.5 0.1-9-7-1.7-8.4-2.9-16.8-4.7-25.2-1.8-8.8-4-17.5-6-26.2-1.6-6.9-3.1-13.7-4.9-20.5-1.8-6.8-3.8-13.5-5.8-20.2-3-10-6.2-19.9-9.1-30-1-3.4 1.4-4.8 5.1-4.2 8.9 1.6 12.6 7.7 15.4 15.5 5.8 15.8 12.1 31.5 18.3 47.2 6.7 17 13.6 34.1 20.4 51.1 6.4 15.9 12.8 31.9 19.3 47.8 3.4 8.4 7.1 16.7 10.5 25 0.5 1.2 0.5 2.6 0.8 4-10.9 10-23.2 17.9-36.2 26.3-2.1-8.1-4.1-15.7-5.9-23.3-4.1-16.5-8.2-33-12.2-49.5-0.5-1.1-0.5-2.3-0.7-3.5z" fill="#9F090D" p-id="1404"></path><path d="M577.4 592.7c7.5-1.2 14.8-3 22.5-3 4.4 22.3 8.9 44.6 13.3 66.9 1.8 9.2 3.2 18.4 4.9 27.6 0.5 2.6-0.2 3.8-2.7 4.6-5.7 1.8-11.4 3.8-17.1 5.8-2.7 1-3.5 0.3-4-2.6-4.3-26-8.8-52-13.2-77.9-1.4-7.2-2.5-14.3-3.7-21.4zM618 587.3c7-1.4 14.2-2.3 21.3-3 5.8 26.6 11.5 53.3 17.4 79.8 0.9 3.9 0.7 6.3-3.6 7.9-5.3 2-10.3 4.9-15.7 7.5-4.7-25.2-10.1-49.7-15.7-74.2-1.3-5.9-2.5-11.9-3.7-18z" fill="#A10C10" p-id="1405"></path><path d="M271.8 545.2c3.4 0.7 6.8 1.2 10.1 2.1 3.7 1.1 5.3 5.1 3.9 10.2-2.7 10-5.6 20-8.4 30-3 11-5.9 22.1-8.8 33.1-4.2-2.4-7-6.5-10.8-9.4-2-1.6-2-3.9-1.4-6.5 3.5-14.6 6.6-29.3 10.2-43.8 1.3-5.4 3.5-10.5 5.2-15.7z" fill="#EFD1B7" p-id="1406"></path><path d="M542.1 140.5c-0.7 6.9 2.7 13.3 2.8 20 0.2 12 5.6 21.5 13.2 30.3 5 5.8 5.9 13.4 7.4 20.6 0.6 3.1-1.2 3.6-3.7 3.4-14.7-1.3-29.3-0.5-43.8 1.4-14.3 1.8-28.8 2.9-42.8 7.1-7.4 2.2-13.9 5.8-19.2 11.4-2.7 2.9-5.7 4.5-9.9 4-5.5-0.6-10.8 0.3-15.8 2.7-3.1 1.5-6.3 1.6-9-0.4-16-11.6-34.1-11.6-52.5-9.9-6.3 0.6-12.6 1.1-18.9 1.6-0.1-16.7-0.3-33.3 2.6-49.8 3.2-18.4 6.9-36.5 17.6-52.3 1.3-1.9 1.7-3.8 1.6-5.9 15-4.2 30-4.5 44.8 0.5 4.3 1.5 7.4 1.2 10.2-2.7 1.3-1.8 3-3.4 4.6-4.9 1.8-1.7 2.2-3.5 0.8-5.6 1.7-0.1 2.9-1.7 4.8-1.3 0-4.5 4.3-5 6.9-6.9 5.9-4.4 12.2-7.3 19.9-6.6 10.1 1 20 2.4 29.8 5 10.1 2.6 19.2 6.8 27.8 12.6 2.1 1.4 2.1 4.8 4.6 4.9 2.7 0 3.7 1.6 4.8 3.2 1.7 2.3 4 4.1 5.7 6.3 2.3 3.6 5.8 6.5 5.7 11.3z" fill="#FCEFE1" p-id="1407"></path><path d="M482.2 301.5c-0.7 2.7 0.7 5 1.7 7.4 1.4 3.5 0.9 6.3-2.1 8.9-10.6 9-21.9 15-36.4 9.9-1.4-0.5-2.7-1.2-4.1-1.9-0.3-3.3-1.6-6.3-2.9-9.4-2.1-4.8-3.2-9.9-2.1-15.3 1-4.8 2.3-9.8 1.9-14.6-0.7-9.3-1.7-18.5-1.5-27.8 0-2.1-0.5-4.1-2-5.7 2-0.7 3.9-1.7 5.9-2.1 5.1-1.1 9.2 1.1 11.2 6 1.8 4.5 3.9 8.8 7.5 12.2 2.7 2.6 5.2 2.6 7.8-0.1 2.3-2.3 4.7-4.5 1.6-8-1-1.1-2.7-2.7-1.5-4.3 1.2-1.5 3.1-0.5 4.6 0.2 10.9 4.7 21.9 4.6 33.1 1 2.6-0.8 5.2-1.7 7.7-2.5 5.8-1.9 7.4-1.3 10.6 4.2-0.3 0.3-0.7 0.6-1 0.9-2 2.7 1.1 4.4 1.3 6.3 0.3 5.2 2.2 11.1-3.1 15.4-1.3 1.1-2.4 2.7-2 4.7-1.7 2.9 0.6 4.4 2.5 5 2.9 1 6.1 0.8 8.5-1.8 4.5 0 7-3.3 9.6-6 7.1-7.6 9-17.2 10.2-27 0.5-3.9 1-7.8 1-11.7 0-5.8 2.3-9.8 7.4-12.9 10.2-6.1 10.9-6 13.1 5.7 1.1 5.8 2 11.6 3 17.4 0.3 1.5 0.3 3.3 2 3.8 1.6 0.5 2.6-1.1 3.6-2.2 4.5-5.1 4.5-7.8 0.3-13.5-1.7-2.2-3.1-4.5-1.4-7.4 1.6-2.8 3.7-4.7 7.2-4.7s5.1 2.3 6.3 5c3.3 7.7 3.2 15.9 2.4 24.1-1.1 11.8-4.2 23.1-8.4 34.1-3 7.9-5.2 16.1-6.5 24.4-0.3 1.9-0.2 4.2-2.6 4.8-2.5 0.7-2.8-1.7-3.6-3.2-1-1.9-1.9-1.4-2.4 0.1-2.5 8-7.1 14.9-5.7 24.5 3.3 22.5 2.3 45-7.5 66.1-9 19.5-23.8 34-41.2 45.9-3.5 2.4-7.3 2.5-10.8-0.6-1-0.9-2.2-1.5-3.4-2.3 0.3-2.6-0.1-5.2-1.2-7.5-2.7-5.6-5.5-11.2-8.4-16.8-3.4-6.5-5.8-13.1-4.3-20.6 0.3-1.6 0.8-3.8-1.1-4.3-2.1-0.6-2.9 1.4-3.3 3.4-0.3 1.4-1.2 2.8-1.6 4.2-0.5 2-0.3 4.5-3.3 4.5s-2.8-2.5-3.4-4.5c-1.6-5.5-3.1-6.2-8.5-4.5-4 1.2-8.2 1.6-12.4 1.9-1.3-4.3-4.4-6-8.7-6.5-2.4-0.2-5.5-0.6-6-3.2-0.4-2.4 2.5-3.6 4.3-4.7 4.6-2.7 9.6-4.6 15-4.5 15.5 0.4 30.2-2.8 44.1-10 8.9-4.5 15.3-0.8 17 9.2 0.7 4.2 1.2 8.4 2.8 12.3 1.3 3.3 2.9 3.4 5.2 0.6 2.9-3.5 3-7.9 3.2-12 0.3-7.1 1.3-13.6 5.9-19.4 3.5-4.5 4-10.3 3.9-16-0.1-3.5-0.3-6.9-0.4-10.4 3.8-1.7 6.4-8 5.1-12.5-1.3-4.5-3.6-8.1-7.5-11.2-9.2-7.1-17.7-15.1-26.8-22.2-7.1-5.6-15.3-7.9-24.4-5.7-4.3 1.2-6.3 3.9-5 7.4z" fill="#FBEEDF" p-id="1408"></path><path d="M542.1 140.5c0.2-4.8-3.4-7.8-5.9-11.1-1.7-2.2-4-4-5.7-6.3-1.2-1.6-2.2-3.2-4.8-3.2-2.5 0-2.5-3.5-4.6-4.9-8.6-5.8-17.7-10-27.8-12.6-9.8-2.6-19.7-4-29.8-5-7.7-0.7-14 2.2-19.9 6.6-2.6 1.9-6.9 2.4-6.9 6.9-1.8-0.4-3.1 1.2-4.8 1.3-18.5-12.4-38.6-19.7-61.1-18.9-17.5 0.6-34.3 4.8-50.5 11.1-1.1 0.4-2.3 1-3.4 1-2.3 0-3.6-1.1-2.1-3.4 1-1.6 2.4-3.2 3.7-4.5 10-9.7 20.8-18.3 33.7-24.1l2.4-1.2c1.4-0.7 2-1.9 1.7-3.3-0.3-1.7-1.7-2.1-3.1-2-2.9 0.2-5.7 0.6-8.5 0.8-0.9 0.1-1.9 0.3-2.5-0.6-0.8-1.2 0.2-2 0.8-2.8 2.4-2.8 5.5-4.7 8.8-6.3C407 30.9 462 30.8 514.9 62.8c33 19.9 51.9 51 59.6 88.7 2.3 11.2 4.2 22.6 3.8 34.1 0 1.4-0.1 2.7-0.3 4.1-0.2 1.5-0.7 3.3-2.3 3.6-1.9 0.4-2.3-1.6-2.9-2.9-7.9-16.1-16.9-31.6-26.9-46.6-0.9-1.5-1.6-3.3-3.8-3.3z" fill="#FCFCFC" p-id="1409"></path><path d="M551 562.8c3.6-1 1.5-3.1 0.6-4.5-2.7-4-6.2-7.4-9.6-10.8-5.2-5-10.5-10-15.7-15-0.8-0.8-2.2-1.5-1.4-3 0.6-1.1 1.9-0.7 2.9-0.7 4.4-0.1 8.8 0.2 13.1-0.1 8.2-0.5 11-3.9 10.1-12-0.8-7.3-1.7-14.7-2.7-22-0.5-3.9-2.6-6.3-6.7-6.7-8.1-0.8-15.9 0.9-23.6 3-1.6 0.4-3.9 2.2-4.7 0.3-0.8-1.7 2-2.6 3.3-3.6 18.4-13.3 34.1-29.3 46.2-48.6 3.9-6.3 7.2-12.9 9.5-20 1-3.2 2.4-3 4.4-0.9 4 4.2 5.9 9.3 7.2 14.9 5.1 23 3.2 45.9-0.5 68.9-2.3 14.2-5.4 28.1-9.9 41.8-0.5 1.4-1.4 3.3 0.2 4 1.7 0.8 2.6-1.2 3.3-2.4 6.1-10.7 9.6-22.4 13-34.1 5.7-19.3 9.7-38.9 11.2-59 0.1-0.7 0.3-1.5 0.5-2.2 0.9 0.5 0.9 1.4 1.2 2.3 2 8.6 4.3 17.2 6 25.8 1.6 8.1 3.1 16.2 3.7 24.4 0.5 7.5 1.3 15 2.2 22.4 2.1 17.5 3.8 34.9 3.4 52.5-0.6 0.1-1.3 0.2-1.9 0.3-0.3-0.5-0.5-0.4-0.7 0.1-30.6 3.1-61.2 6.1-91.7 10-6.6 0.8-6.7 0.7-7.9-5.7-2.5-13.6-7.1-26.4-13.2-38.7 2.7 0.2 4.6 2.1 6.6 3.7 8.4 7 16.8 14 27.1 18.4 6 2.5 11.3 1.8 14.5-2.8z m-14.4-30.3c1.2 0.8 1.8 1.6 1.7 3.1-0.1 1.3-0.4 2.7 0.7 4.1 1.8-2.3-1-5.8 2.6-7.2h-5z m7 7.1c1.8-0.9 0.3-2.8 1.7-3.1 2.5-0.6 0.8-1.8 0.6-2.8-0.1-0.8-0.7-1.5-1.6-1.2-1.4 0.4-0.9 1.7-0.9 2.7-0.1 1.4 0.1 2.7 0.2 4.4z" fill="#FBFBFB" p-id="1410"></path><path d="M416.5 589.3c1-3.3-1-5.4-3-7.5-22-22.9-35.9-50.3-44.3-80.7-2.1-7.4-2.8-15.1-2.2-22.8 3.1 2.3 6.1 4.8 9.3 7 8.8 5.9 16.5 13.2 26.1 18.2 2.5 1.3 6 1.2 7.2 4.7-1.1 1.3-2.3 2.5-3.4 3.8-5.4-0.1-8.3 2.2-9.8 7.3-1 3.4-0.1 6.6 0.6 9.8 1.4 7.5 2.4 15 6.5 21.8 2.5 4.2 5.9 5.6 10.4 5.5 7.4-0.3 14.6-1.9 21.7-3.7 1.3-0.3 2.8-1.6 4.1 0.2-3.3 6.4-6.1 12.9-7.8 19.9-0.3 1.1-1 2.7 0.2 3.3 1.6 0.9 2.3-0.9 3-2 5.5-9.3 11.2-18.4 19.2-25.9 2.6-0.3 3.6 0.4 2.2 3.2-1.8 3.6-3.7 7.2-4.9 11-3.1 9.8-7.3 19.2-12.3 28.2-1.5 2.8-2.7 5.3-2.4 8.4-11.7 2.1-23.4 4.3-35 6.4-12.4 2.3-24.9 4.5-37.3 6.8-1.5 0.3-3 0.5-4.5 0.7-6.2 0.8-8.5-0.8-10.1-6.8-2.2-8.3-3.5-16.8-4.2-25.3-1.5-18-3-36-1.2-54.1 0.5 0.5 1.2 1 1.5 1.6 4.9 12.1 11.2 23.7 19.3 33.8 9.9 12.3 20.6 24.1 33.9 33.1 0.9 0.6 1.8 1.1 2.8 1.4 5.7 2 13.3-1.7 14.4-7.3z" fill="#FBFBFA" p-id="1411"></path><path d="M454.6 410.3c4.2-0.3 8.4-0.7 12.4-1.9 5.5-1.6 7-0.9 8.5 4.5 0.6 2 0.3 4.5 3.4 4.5 3 0 2.8-2.6 3.3-4.5 0.4-1.4 1.2-2.8 1.6-4.2 0.4-1.9 1.1-3.9 3.3-3.4 1.9 0.5 1.4 2.7 1.1 4.3-1.6 7.5 0.9 14.1 4.3 20.6 2.9 5.5 5.7 11.1 8.4 16.8 1.1 2.3 1.4 4.9 1.2 7.5-1.8 1-2.1 2.4-1.3 4.2 3.6 7.9 1 14.9-3.1 21.8-1.8 3-3.5 6-5 9.1-2 3.9-3.4 8.1-3.1 12.6 0.3 3.4-1.4 3.9-4 3.3-0.9-0.2-1.8-0.5-2.5-1-11.2-7.7-22.5-15-31.6-25.4-9.4-10.7-9.8-22.8-7.1-35.7 1.8-8.8 1.3-17.4-1.5-25.8-0.4-1.2-1.2-2.5-0.1-3.3 1.3-0.9 2.7 0.2 3.6 1.1 2.1 2.2 4 4.5 6 6.8 0.6 0.6 1.2 1.8 2.1 1.3 0.6-0.3 0.9-1.4 1.1-2.3 0.7-3.8-0.7-7.3-1-10.9z" fill="#FCFCFC" p-id="1412"></path><path d="M280.8 204.1c0-2.8-0.1-4.5 0-6.2 0.8-10.1-1.9-18.9-8.4-26.9-6.6-8.2-6.1-8.6 3.8-11.4 9.4-2.7 17.7-7.4 25.2-13.8 10-8.5 19.5-17.6 31.5-23.5 5.5-2.7 11.1-4.7 17.2-5.2 1.1-0.1 2.6-0.6 3.2 0.9 0.5 1.5-1 2.1-2 2.6-16.5 9.5-26.5 24.2-33 41.7-1.1 3-2.3 6.1-4.8 8.1-9.3 7.5-12 18-13.5 29.1-2 15.2-2.4 30.4-0.3 45.6 0.7 4.9-4.5 10.3-9.2 9.8-2-0.2-2.6-2-3.2-3.5-3.3-8-4.8-16.5-5.5-25.1-0.5-7.7-1.3-15.6-1-22.2zM428.9 341.7c1.8 0.3 3.7 0.4 5.3 1.1 7 3.1 14.3 3.4 21.7 3.3 6-0.1 10.5-2.4 13.2-7.8 1.1-2.1 2.6-3.8 4.8-4.6 5.3-1.9 9.5-5.3 13.2-9.2 2.8-2.9 5.4-2.7 8.4-0.8 4.1 2.6 7.4 6.2 10.4 10 4.6 5.8 9.7 10.6 17.6 11.6 3.4 0.4 3.8 2.9 1.5 5.6-2.2 2.5-5 3.2-8.1 3.4-14.9 1-29.9 1-44.7 2.5-18.5 1.9-36.8 4.5-54.4 10.7-4.7 1.6-9.5 3.1-14.6 1.1-1.7-0.7-3.5-1.5-3.7-3.6-0.1-1.8 1.7-2.3 3-2.9 6.1-3.2 10.5-8.1 14-13.8 3-4.7 7.2-6.5 12.4-6.6z" fill="#FAFAFA" p-id="1413"></path><path d="M358.2 310.5c-1.1-1.9-3.1-2.3-4.8-3.1-7.6-3.2-13.3-8.7-17.4-15.8-1.1-1.9-2.4-4-0.2-5.6 2.5-1.9 4.8-5 8.7-2.9 1.1 0.6 2 1.3 3 2 5.3 3.1 7.3 2.7 10.7-2.3 5.1-7.6 12.1-11.4 21.3-11.2 5.8 0.1 11.7 1 17.5-0.6 2.5-0.7 4.9-1.5 7.1-2.8 0.9-0.6 2.1-1.7 3.2-0.4 0.9 1.2-0.2 2.2-0.8 3.2-0.9 1.4-1.7 2.8-2.6 4.2-0.6 0.3-1.2 0.7-1.9 1-8.9 3.2-9 3.2-8.8 12.3 0.1 5.9-2.2 10.3-7.2 13.3-2.1 1.3-3.8 2.8-4.7 5.1-0.7 1.1-2.9 1.6-2.1 3.5 0.7 1.5 2.3 1.6 3.8 2.1 2.2 0.7 4.1-0.3 6.1-0.5 4-0.4 7.4-3.3 11.6-3.2-2.6 4.2-4.9 8.6-5.1 13.7-0.1 2.3-1.6 3.6-3.6 4.7-4 2.1-8 4.4-11.4 7.5-4.5-6.1-10.3-11.4-13-18.5-1.8-4.9-4.7-6.3-9.4-5.7z" fill="#FBEEDF" p-id="1414"></path><path d="M371.5 124.8c0.1 2.1-0.3 4-1.6 5.9-10.6 15.8-14.4 33.9-17.6 52.3-2.9 16.5-2.7 33.2-2.6 49.8-7.1 1.4-14.1 2.7-21.2 4.1-2.2 0.4-4.1 0-4.6-2.4-1.5-7.5-2.8-12.6 4.2-17.3 3.2-2.2 3.5-5.3 3.6-8.8 0.4-14.6 1.5-29.2 6.1-43.2 3.3-9.8 7.6-19 13.7-27.3 5.1-6.8 11.5-11.6 20-13.1zM360.6 379.9c0.9-7.5 2-14.4 10-17.5 5.2-2 7.6-0.8 8.7 4.7 2.7 13.5 6.7 26.6 12.4 39.1 1.9 4.3 4.2 8.4 7.4 11.8 1.1 1.2 2.2 2.7 4.1 2.4 2.2-0.4 2-2.4 2.5-3.9 0.7-2 1.2-4 1.8-6 0.3-1 1-1.9 2.2-2 1.3-0.1 1.9 0.8 2.3 1.8 3.5 8.5 6.8 17.1 10.9 25.3 1.7 3.4 0.1 5.7-4 6.1-4.9 0.5-9.6-0.8-14.1-2.6-14.7-6.1-24.8-17.4-32.9-30.6-4.5-7.5-8.7-15.2-10.8-23.8-0.2-1.7-0.3-3.3-0.5-4.8zM618.1 577.4c0.4-17.6-1.3-35.1-3.4-52.5-0.9-7.4-1.8-14.9-2.2-22.4-0.5-8.2-2.1-16.3-3.7-24.4-1.7-8.7-4-17.2-6-25.8-0.2-0.9-0.3-1.8-1.2-2.3 0.1-3 0.2-6 0.4-9 0.2-3.1 2-3.5 4.3-2.2 4.4 2.3 6.1 6.6 7.1 11 2.3 9.7 4.5 19.4 6.5 29.1 6 29.4 10.6 59 15.1 88.6 1 6.5 0.2 7.8-6.2 8.9-3.5 0.6-7.2 0.7-10.7 1zM416.5 589.3c-1.1 5.7-8.7 9.4-14.6 7.1-1-0.4-1.9-0.9-2.8-1.4-13.3-9-24-20.8-33.9-33.1-8.1-10.1-14.4-21.7-19.3-33.8-0.3-0.6-1-1.1-1.5-1.6 0.3-3.3 0.5-6.6 0.9-9.9 0.5-3.9 3.8-5.3 6.9-6.3 3.2-1 3.7 2.3 4.8 4.3 5.5 9.9 10.7 19.9 16.3 29.7 9.2 16 21.3 29.5 35.2 41.5 2.3 1.7 4.4 4.4 8 3.5zM409.6 508c-1.2-3.4-4.7-3.4-7.2-4.7-9.5-4.9-17.2-12.3-26.1-18.2-3.2-2.1-6.2-4.6-9.3-7-0.5-4.3 0.1-8.4 1.9-12.3 1.2-2.5 2.6-3 4.9-1 15.5 14.2 33.5 24.5 52.8 32.5 0.1 0.1 0.3 0.1 0.4 0.2 1.8 1 4.9 1.3 4.4 3.8-0.4 2.4-3.5 1.8-5.4 2-5.7 1-11.2 2.5-16.4 4.7zM482.2 301.5c-1.3-3.5 0.7-6.2 5.1-7.3 9.1-2.2 17.3 0.1 24.4 5.7 9.1 7.2 17.6 15.1 26.8 22.2 3.9 3.1 6.2 6.7 7.5 11.2 1.4 4.5-1.3 10.8-5.1 12.5-0.3-1-0.7-2-0.8-3-0.8-6.6-3.9-11-10.8-12.8-5.8-1.5-10.2-5.6-14.4-9.9-4.2-4.3-7.8-9.3-12.8-12.8-5.9-3.9-12-7.9-19.9-5.8zM439.6 552.7c-1.3-1.8-2.8-0.5-4.1-0.2-7.1 1.8-14.3 3.4-21.7 3.7-4.5 0.2-7.9-1.3-10.4-5.5-4.1-6.8-5.1-14.3-6.5-21.8-0.6-3.2-1.5-6.4-0.6-9.8 1.5-5.1 4.4-7.4 9.8-7.3 0.9 8.5 1.7 17.1 2.7 25.6 0.7 6 3.7 8.6 10 8.8 7.2 0.2 13.9-2.1 20.9-3.2 1.4-0.2 3.2-1.1 4.2 0.2 1.1 1.4-0.4 2.8-1.1 4.1-1 1.9-2.1 3.6-3.2 5.4zM436.8 598.7c-0.3-3.1 0.8-5.6 2.4-8.4 5-9 9.2-18.3 12.3-28.2 1.2-3.8 3.1-7.4 4.9-11 1.4-2.8 0.4-3.5-2.2-3.2 3.1-4 6.8-7.2 11.1-9.8 1.2-0.8 2.6-2 4.1-0.9 1.5 1 0.9 2.7 0.6 4.2-2 9.8-5.6 19.1-9.4 28.3-2.7 6.5-5.7 13-8.5 19.5-3 6.8-8 9.9-15.3 9.5zM358.2 310.5c4.7-0.6 7.7 0.8 9.6 5.7 2.7 7.1 8.5 12.4 13 18.5-1.9 1.9-3.7 4-5.9 5.6-4.5 3.4-9.8 3.6-14.3 0.2-7.6-5.9-14-12.8-18.2-21.6-0.7-1.4-2-3.2-0.6-4.6 1.3-1.3 2.7 0.4 4.1 0.9 0.8 0.3 1.6 0.8 2.5 1.1 7 2.8 8.8 1.7 9.8-5.8zM551 562.8c-3.3 4.6-8.5 5.4-14.7 2.7-10.3-4.4-18.7-11.4-27.1-18.4-2-1.6-3.8-3.4-6.6-3.7-1.7-2.6-3.4-5.3-5-7.9-0.5-0.8-1.5-1.7-0.6-2.8 0.9-1.1 2.1-1.1 3.3-0.6 4.1 1.9 8.2 3.7 12.2 5.8 12.4 6.5 24 14.3 35.1 22.7 1.1 0.8 2.3 1.4 3.4 2.2zM434.7 253c1.6 1.6 2.1 3.5 2 5.7-0.2 9.3 0.8 18.5 1.5 27.8 0.4 4.8-1 9.8-1.9 14.6-1.1 5.4-0.1 10.4 2.1 15.3 1.3 3 2.6 6.1 2.9 9.4-5.2-2.1-9-5.9-12.1-10.4-2-3-2.9-6.3-2.1-9.9 2.5-11.9 3.3-23.8 1.4-35.9-0.7-4.3 0.3-8.4 1.9-12.3 0.9-2 2.1-3.7 4.3-4.3z" fill="#EFD1B7" p-id="1415"></path><path d="M381.5 306.9c0.9-2.3 2.5-3.9 4.7-5.1 5-3 7.3-7.4 7.2-13.3-0.1-9.1 0-9.1 8.8-12.3 0.7-0.2 1.3-0.7 1.9-1 1.5 3.4 3.9 5.8 7.3 7.2-5.3 16.3-13.7 23.2-29.9 24.5z" fill="#FBFBFA" p-id="1416"></path><path d="M492.4 372.8c-6.6 3.7-13.4 5.9-20.3 7.4-5.9 1.3-11.8 2.3-17.7 3.4-4.8 0.9-9.3 0.4-13.5-2.1-0.9-0.5-2-1.1-1.9-2.3 0.1-1.3 1.3-1.4 2.4-1.6 15.5-4.1 31.4-5.5 47.4-6.3 0.7 0 1.5 0 2.2 0.2 0.3 0.1 0.5 0.5 1.4 1.3z" fill="#FAF7F7" p-id="1417"></path><path d="M381.5 306.9c16.2-1.3 24.6-8.2 29.9-24.5 1.9-1.6 3.8-3.2 6.1-5.1 1.2 4.2 0.1 7.9-1.1 11.5-2.8 8.5-9.1 14.2-15.4 20-4.2-0.1-7.6 2.8-11.6 3.2-2 0.2-3.9 1.3-6.1 0.5-1.4-0.5-3.1-0.6-3.8-2.1-0.9-1.8 1.2-2.3 2-3.5z" fill="#EFD1B7" p-id="1418"></path><path d="M379.7 248c3.1 0.2 6.7 1 9.3 4.2 0.7 0.8 1.4 1.7 1.1 2.8-0.4 1.2-1.6 1.2-2.7 1.1-9.2-0.7-17 3.2-24.4 7.9-3.4 2.2-6.9 4.4-11 4.8-1.2 0.1-2.6 0-3.1-1.3-0.4-1.1 0.3-2.1 1.3-2.6 7.5-4.2 13.4-10.8 21.2-14.5 2.3-1.2 4.7-2.5 8.3-2.4zM502.7 234.5c3.3 0.3 7 2 10.3 4.4 4 2.9 7.9 6 12.6 8 0.9 0.4 2.3 0.5 2 1.9-0.3 1.2-1.5 1.4-2.5 1.5-3.7 0.1-7.3-0.9-10.3-3-7.9-5.5-16-6.3-24.7-2.1-1 0.5-2.5 1.1-3.3-0.1-1-1.4 0.2-2.5 1.1-3.5 3.7-4.6 9.1-7.3 14.8-7.1z" fill="#E7CBB3" p-id="1419"></path><path d="M518.4 287c-0.4-2 0.8-3.7 2-4.7 5.2-4.4 3.4-10.2 3.1-15.4-0.1-1.9-3.2-3.6-1.3-6.3 0.3-0.3 0.6-0.6 1-0.9 2.2 2.1 5 1.6 7.7 1.6 6.6 0 7.2 0.9 5.8 7.5-1.3 6.6-5.7 11.1-10.1 15.6-3 0-5.2 2.6-8.2 2.6zM301.6 265.9c2-0.1 2.4 1.6 2.5 3 0.5 7.6 3.2 14.6 5.8 21.7 0.6 1.6 1 3.4-0.9 4.3-1.9 1-3.1-0.4-4.1-1.8-4.4-5.6-7.8-11.8-10.2-18.5-1.7-4.5 1.8-8.9 6.9-8.7z" fill="#FAF7F7" p-id="1420"></path><path d="M329.3 262.7c1.1-4.6 3.1-8.6 7.9-10.2 3.8-1.3 7.8-2.1 11.7-3.1 1.4-0.4 2.8-0.5 3.6 0.9 0.8 1.5-0.4 2.5-1.4 3.3-4.8 3.9-9.5 7.8-14.3 11.7-1.6 1.3-3.3 2.1-5.4 1.1-1.7-0.8-1.9-2.2-2.1-3.7zM411.3 316.9c0.2-3.4 0.7-6.8 4.5-8.4 3.5-1.5 5.4 0.1 4.9 3.7-0.6 4-0.1 7.7 1.9 11.3 0.9 1.6 1.9 3.5 0.3 5-1.8 1.7-4 0.9-5.8-0.3-4.1-2.6-5.8-6.5-5.8-11.3zM523.1 226.9c4.4 0.1 8.5 0.8 11.3 4.6 1.6 2.2 2.1 4.8 0.3 7.1-1.7 2.2-4 0.9-5.8 0-4.7-2.4-9.2-5.2-13.7-7.8-0.7-0.4-1.4-0.8-1.3-1.6 0.1-0.8 0.9-1.2 1.6-1.3 2.5-0.4 5-0.7 7.6-1z" fill="#E7CBB3" p-id="1421"></path><path d="M484 572.7c2.4 5.1 3.3 10.4 4.2 15.7 0.4 2.1-0.8 3.4-2.9 3.8-0.3 0.1-0.6 0.1-0.9 0.1-3 0-6.8 2.5-8.6 0.4-1.8-2 1.9-4.7 3-7.2 1.9-4.1 3.2-8.5 5.2-12.8zM312.5 259.8c-3.7 0.4-3.1-2.2-3.5-3.9-0.4-1.7-0.4-3.3 2.1-3.5 1.9-0.2 3.9-0.4 5.8-1 4.2-1.4 4.9 1.1 5.4 4.2 0.6 4-2.5 2.9-4.4 3.3-2 0.4-3.9 0.7-5.4 0.9zM548.9 222.5c2 0.3 4.7-1.6 5 2.6 0.2 3.6-1.6 4.4-4.5 4.6-1.5 0.1-3 0.1-4.5 0.3-2.4 0.3-3.8-0.1-4.2-3.1-0.3-3 0.8-3.7 3.3-3.9 1.7-0.1 3.3-0.4 4.9-0.5z" fill="#FAF7F7" p-id="1422"></path><path d="M518.4 287c3 0 5.2-2.6 8.2-2.8 0.5 2.2 1.3 4.2 2.8 6-2.4 2.6-5.5 2.8-8.5 1.8-1.9-0.6-4.2-2.1-2.5-5zM615.5 577.8c0.2-0.4 0.4-0.6 0.7-0.1l-0.3 0.2-0.4-0.1z" fill="#EFD1B7" p-id="1423"></path><path d="M634 358.2c9.2-7 17.4-13.3 25.7-19.6 2.1-1.6 2.2-3.3-0.3-4.4-1.5-0.7-1.5-1.6-1.3-2.9 0.3-1.6 1.5-1.7 2.7-1.7h30.4c-0.1 1.7 0 3.4-1.4 3.8-8 2.5-13 9.1-19.5 13.7-4 2.9-7.8 6.2-11.7 9.3-1.7 1.3-1.9 2.3-0.7 4.1 4.7 7 9.3 14.1 14 21.1 1.6 2.4 3.8 4.3 6.6 5.3 1.2 0.4 2.4 0.4 2.1 2.2-0.2 1.5-0.7 2.6-2.5 2.6-6.9-0.1-13.9 0.5-20.8-0.7-4.7-0.8-8.2-3.6-11-7.4-4.5-6.2-9-12.3-14-19.2-1.8 6.5-3.5 12.4-5 18.3-0.5 1.9 0.8 3.2 2.4 3.9 1.8 0.7 1.5 1.8 1.2 3.2-0.3 1.5-1.1 1.9-2.5 1.9h-28.1c-1 0-2.3 0.3-2.3-1.4 0-1.2 0.2-2.7 1.6-3 5.4-1.2 6.7-5.6 8-10 3.4-12 6.7-24.1 10-36.1 0.8-2.8 0.9-5.5-2.5-6.8-1.5-0.6-1.5-1.5-1.1-2.8 0.4-1.5 1.3-1.8 2.6-1.8h26.7c0.8 0 2.1-0.3 2.1 1 0 1 0.1 2.5-1 2.8-5.6 1.9-5.4 7.1-6.8 11.4-1.1 3.7-2.1 7.8-3.6 13.2zM810.3 377.7c-0.1 4.3-1.6 7.8-2.2 11.4-0.2 1.3-1.3 1.6-2.4 1.8-12 2-24 3.4-35.9-0.1-22.3-6.5-28.5-29.3-12.3-46 13.3-13.8 30.4-16.9 48.7-15.6 3.1 0.2 6.3 0.9 9.4 1.5 2 0.4 3.1 1.2 2.2 3.7-1.2 3.4-2 6.9-2.9 10.4-0.6 2.4-1.9 2.5-3.6 1.1-9.7-8.2-20-6.1-30-1.2-8.1 3.9-11.7 12.5-9.9 20.9 1.6 7.6 9.4 13.7 18.7 14.7 6.7 0.8 13.2-0.5 20.2-2.6zM753.3 329.5c-1.3 5-2.5 9.5-3.6 14.1-0.6 2.3-1.3 3.7-3.3 1.1-1.7-2.1-3.9-2.6-6.4-2.6-4.7 0.1-9.4 0.2-14 0-3.1-0.2-4.1 1-4.8 3.9-2 8.1-2.2 8.1 6.3 8.1 3.5 0 6.9 0.1 10.4 0 2.4-0.1 2.9 0.8 2.1 2.9-0.5 1.3-0.7 2.6-1 3.9-0.6 2.3-0.6 5.4-2 6.8-1.4 1.3-3.7-1.5-5.9-1.6-4.5-0.1-9-0.1-13.6-0.2-1.8-0.1-2.2 1-2.6 2.4-1 4.1-2.2 8.1-3.3 12.2-0.6 2.4-0.3 4.6 2 5.9 1.7 0.9 1.4 2 1 3.4-0.4 1.5-1.4 1.7-2.7 1.7-7.7 0-15.4-0.1-23.1 0-3.9 0-2.1-2.5-1.7-3.9 4-14.7 8.1-29.3 12.1-44 1-3.7 2.9-7.5-2.4-10-1.7-0.8-0.9-3.3 1.4-3.9 1-0.3 2.1-0.1 3.2-0.1h47.1c1.4-0.1 2.9-0.1 4.8-0.1z" fill="#FAF7F7" p-id="1424"></path><path d="M822.9 335.8c-0.4-0.3-0.8-0.7-1.2-1 3.1-0.5-2-6.1 3.4-5.3 1.9 0.3 3 1.3 3.5 3 0.4 1.4-0.1 2.6-1.1 3.6-1.5-0.3-2.8-3.2-4.6-0.3z" fill="#E7CBB3" p-id="1425"></path><path d="M822.9 335.8c1.8-2.9 3.1 0 4.6 0.4-1.6 1.5-3.1 0.9-4.6-0.4z" fill="#A10C10" p-id="1426"></path><path d="M536.6 532.5h4.9c-3.6 1.4-0.7 4.9-2.6 7.2-1.1-1.4-0.7-2.8-0.7-4.1 0.2-1.5-0.4-2.3-1.6-3.1zM543.6 539.6c-0.1-1.8-0.3-3.1-0.2-4.4 0-1-0.4-2.3 0.9-2.7 0.8-0.3 1.4 0.4 1.6 1.2 0.2 1 1.9 2.2-0.6 2.8-1.4 0.4 0.1 2.3-1.7 3.1z" fill="#040303" p-id="1427"></path><path d="M581 614c-1.2-7.1-2.4-14.3-3.6-21.4-5.9 0.1-11.7 0.8-17.4 2.5 2.4 19 4.8 38 7.3 57 1.9 14.6 4.1 29.3 6.2 43.9v0.3c6.9-1.6 13.7-3.4 20.5-5.4-4.2-25.6-8.7-51.2-13-76.9zM266.6 560.9c1.3-5.3 3.5-10.5 5.3-15.7-6.3-2.5-12.4-1.5-18.3 1.4-10.1 5-20.2 10.1-30.2 15.3 10.1 14.4 21.3 28 33.5 40.7 3.3-14 6.3-27.9 9.7-41.7zM814.3 480.5c-8.2-5.7-17-10-26.4-13.3-12.1-4.3-24.7-5.7-37.3-6.9-28.7-2.6-57.5-4.5-86.2-6.6-8.5-0.6-9.2 0.5-5.6 8.5 18 39.8 36.1 79.6 54.2 119.4 4.9 10.8 9.7 21.5 14.6 32.3 38.7-36.5 68.7-82.1 86.7-133.4zM670.5 635.5c-4.1-16.5-8.2-33-12.2-49.5-0.3-1.2-0.3-2.4-0.5-3.6-6.3-0.5-12.4 1.1-18.5 1.9 5.8 26.6 11.5 53.3 17.4 79.8 0.1 0.2 0.1 0.4 0.1 0.7 6.3-3.4 12.4-7 18.5-10.7-1.7-6.3-3.3-12.5-4.8-18.6zM621.7 605.4c-1.4-6-2.5-12.1-3.8-18.1-6.1 0.3-12.2 0.9-18.1 2.3 4.4 22.3 8.9 44.6 13.3 66.9 1.7 8.7 3 17.5 4.6 26.3 6.4-2.4 12.6-5.1 18.8-7.9-4.5-23.5-9.6-46.5-14.8-69.5z" fill="#FEFEFD" p-id="1428"></path></svg>