<?xml version="1.0" standalone="no"?><!DOCTYPE svg PUBLIC "-//W3C//DTD SVG 1.1//EN" "http://www.w3.org/Graphics/SVG/1.1/DTD/svg11.dtd"><svg t="1577345874557" class="icon" viewBox="0 0 1024 1024" version="1.1" xmlns="http://www.w3.org/2000/svg" p-id="1258" xmlns:xlink="http://www.w3.org/1999/xlink" width="128" height="128"><defs><style type="text/css"></style></defs><path d="M250.5 835.6c-3.2-4.1-6.8-8.7-10.6-13.7-10.9 5.9-17.4 16.1-25.3 25.9-8.5-8.2-16.9-16.1-25.6-24.5 8.7-12.1 17.5-23.5 32.4-29.2-3-5.4-5.7-10.7-8.9-15.7-0.6-0.9-3.5-0.9-5-0.4-9.9 3.5-17.2 10.6-24.2 18.2-3.1 3.3-6 6.8-9.5 10.7-7.4-9.2-14.6-18-22.9-28.2 11.9-9.2 23.5-18.3 35.2-27.3 1.3-1 3.2-1.3 4.9-1.8 5-1.5 8.8-0.9 10.2 5.1 0.6 2.4 2 4.7 3.1 7 3.4 7.5 6.3 9.1 14.7 8.9 19.3-0.4 36.3-7.6 52.3-17.4 9.1-5.7 17.3-12.8 26-19.2 3-2.2 2.9-4.4 1.2-7.5-7.4-13.8-14.5-27.7-18.2-43.1-4-16.4-1.5-31.7 7.8-45.4 10.8-16.1 22.6-31.5 34-47.3 10.4-14.5 17.2-30.4 13.9-48.4-3-16.5-7.6-32.7-12.1-48.8-4.8-17.1-8.5-34.3-7.4-52.1 1.7-27.5 11.6-52.5 26.8-75.3 3.5-5.2 7.1-10.2 9.8-16.3-3.7 2.9-7.7 5.5-10.9 8.8-23.4 24.5-38.4 53-41.9 87.2-2.5 24.4 3.5 47.4 9.9 70.5 3 10.7 5.1 21.7 6.6 32.7 1.6 11.6-4 21.4-10.5 30.4-10 13.8-20.7 27.1-30.7 40.9-10.4 14.3-19 29.3-17.9 48 0.1 1.5-1.4 3.6-2.7 4.7-18.8 16.2-40.3 25.8-65.3 27.3-1.7 0.1-3.5 0.3-6.1 0.6 2.3 8.6 4.5 16.7 7 25.8-23.1 1.2-35.7 19.8-53 32.8-6.8-11.1-13.1-21.4-19.8-32.5 13.4-2.7 21.8-11.7 31-19.5 9-7.7 19-12.4 31-11.9 0.7 0 1.5-0.3 2.7-0.5-1.2-7.4-2-14.7-3.8-21.8-0.4-1.5-4.1-3-6.4-3-14.7 0.1-26.5 7-37.7 15.8-6.7 5.3-14.2 9.6-21.6 14-4.8 2.9-8.3 1.6-10.4-3.9-3.7-9.5-7.8-18.7-12.1-29.1 20.9 0.4 35.4-11.9 50.9-22.1 9.9-6.5 21-10.5 33.7-10.6v-29.6c-13.4-0.6-25.5 3.5-36.9 9.9-10.1 5.6-19.4 12.7-29.9 17.5-7.2 3.3-15.8 3.9-23.8 5.4-1.3 0.2-4-1.3-4.3-2.5-2.9-10.7-5.4-21.5-8.2-33 23.8 3 42.9-7 61.5-18.6 14.1-8.8 29-15.5 46.2-15.9 2.5-11.2 4.9-22.2 7.5-33.4-17.1-1.7-32 3.6-46.5 11-14.1 7.2-28 14.8-42.6 20.8-8.8 3.7-18.6 4.9-28.2 2.2-1.5-0.4-3.5-2.2-3.6-3.6-1.1-8.9-1.7-17.9-2.5-27.4h13c18.3-0.1 34.7-6.8 50.6-15.2 14.9-7.8 29.2-17 46.1-20 7.1-1.3 14.4-1.2 21.6-2 1.6-0.2 3.9-1 4.5-2.2 5.4-11.2 10.6-22.6 16.2-34.7-2.8-0.5-5.6-1-8.4-1.3-24.9-2.5-47 5.7-68.4 17.3-16.2 8.8-32.5 17.5-51.2 19.7-6.8 0.8-13.7 0.5-20.6 0.6-4 0.1-3.6-2.8-3.5-5.4 0.8-11.9 1.1-23.9 2.6-35.8 3.6-29.2 9.8-57.9 19-85.8 15.5-47.1 38.1-90.6 68.1-130.2 45.4-60 102.4-105.8 170.6-137.5 35.9-16.6 73.4-27.9 112.4-34.7 34.3-6 68.8-7.2 103.3-5.4 40.2 2.1 79.5 10.2 117.7 23.4 51.4 17.7 98 43.9 139.8 78.5 50.7 41.9 90.2 92.6 118.7 151.8 17.9 37.1 30.4 75.9 37.1 116.4 3.2 19.3 4.3 38.9 6.4 58.4 0.6 5-1.5 6.2-6.3 6.5-20.2 1-38.6-4.7-56.3-13.8-18.2-9.5-36.1-20-56.8-23.3-10.9-1.7-21.8-1.3-33.2 0.4 6.1 12.9 11.7 24.9 17.7 37.5 25.6-3.3 47.3 8.6 69 20.5 19.4 10.7 39.6 18 62.3 15.8 0.9-0.1 1.9 0.2 3 0.4-0.7 8.8-1.3 17.4-2 25.9-0.2 2.9-1.2 4.8-4.8 5.4-14.2 2.2-27.4-1.1-39.9-7.2-11.8-5.7-23.1-12.5-34.7-18.4-12.9-6.6-26.6-10.4-41.8-8.8 2.3 10.4 4.4 20.7 6.8 30.8 0.3 1.1 2 2.5 3.1 2.6 20.3 0.8 36.6 11.7 53.2 21.5 15.7 9.3 32.2 14.9 52 13.2-3 12.1-5.9 23.7-8.7 35.1-14.4 1.8-26.2-3.1-37.4-10.1-12.5-7.8-24.3-16.8-39-20.2-5.7-1.3-11.5-1.9-17.9-2.9v30.3c16.4 0.1 29.8 7.5 42.6 16.6 12.2 8.7 24.9 16.3 42 16.1-5 11.7-9.5 22.4-14.4 33-0.4 0.9-3.7 1.6-5 1-5.8-2.6-11.7-5.4-17.1-8.9-6.7-4.4-12.8-9.8-19.5-14.2-7.8-5.2-16.8-7.4-26.2-7.9-4-0.2-6.5 0.4-6.8 5.6-0.3 6.4-2.1 12.6-3.3 19.4 5 0.7 9.9 0.9 14.5 1.9 9.7 2.2 17.1 8.4 24.3 14.9 7.4 6.7 15 13.2 26 15.1-6.6 10.9-12.9 21.3-19.7 32.5-4.6-3.8-8.9-6.9-12.6-10.4-11.5-10.9-23.3-21-40.5-22.3 2.4-8.8 4.5-16.8 6.8-25.3-8.1-1.2-15.7-2-23-3.6-18.6-4-34.8-12.7-49-25.3-1-0.9-2-2.6-1.9-3.9 1.1-22.1-10.8-38.7-22.9-55.3-10.2-13.9-20.8-27.5-30.6-41.7-9.1-13.2-6.1-27.9-2.8-42.1 3.4-14.8 8.4-29.3 11.2-44.3 9.4-50.2-5.7-92.8-41.7-128.4-2.9-2.8-6.2-5.3-10.3-7 2.1 2.9 4.2 5.7 6.3 8.7 14.9 21.2 26.4 43.9 30.4 69.9 3.8 24.7-0.7 48.2-7.9 71.7-4.2 13.8-7.7 27.9-10 42.1-3.5 20.6 5.7 37.7 17.7 53.6 8.9 11.9 18.1 23.7 26.7 35.8 7 9.9 12 20.8 13 33 1 11.5-1.8 22.6-6.2 33.2-4 9.5-8.8 18.8-13.5 28-1.7 3.4-1.7 5.5 1.5 8.3 19.4 17.1 40.8 30.3 66.6 35.3 5.3 1 11.1 1.4 16.3 0.4 3.3-0.6 6.5-4 8.8-6.8 2-2.5 3.2-5.9 4-9.1 1.4-5.5 5.4-6.4 9.4-4.5 7.3 3.5 14.8 7.1 20.9 12.3 6.3 5.5 11 12.9 17 20.2-5.1 6.3-12.3 15.3-19.9 24.7-4.6-5.1-8.4-10.2-13.1-14.2-6.2-5.3-13.1-9.9-19.8-14.5-3.2-2.2-5.7-1.3-7.5 2.5-2.1 4.4-4.6 8.6-7.2 13.4 14.4 5.6 23.4 16.7 32.3 29.4-8.5 8.2-17 16.3-25.1 24-8.2-8.9-16.2-17.5-24.6-26.7-4.8 6-8.5 10.7-11.8 14.9 6.9 8.3 13.6 16.3 20.9 25.1-11.4 8.4-21.7 16-32.7 24-1.6-5.2-2.2-10-4.4-13.8-7.4-12.9-14.9-25.7-23.2-38-8.8-13.2-18.7-25.6-23.8-41-3-9.1-4.2-18.3-2.2-27.7 0.3-1.3 0-2.7 0-5.2-10.4 15.9-14.5 32.3-7.6 49.1 6.3 15.3 14.9 29.7 23 44.1 6.8 12.1 13.9 24.1 17 37.8 1.1 4.7 0.7 8-4.5 10.4-6.4 2.9-12.3 6.7-19.4 10.7-0.7-3.9-1.1-7-1.7-10.1-4.4-22.1-16-41.1-25.7-61-4.7-9.5-9.2-19-13.3-28.7-6.5-15.5-6.1-31.1 1.6-46 7.3-14.1 15.6-27.7 23.6-41.4 8.4-14.2 16.6-28.4 19.4-45 2.2-13.2 1.3-26.3-5.6-37.5-9.8-15.8-21-30.7-31.8-45.9-8.5-12-18.2-23.8-18.7-39.1-0.4-10.6 0.8-21.6 3.5-31.8 4.3-16.6 11.5-32.5 15.6-49.2 13.6-55.2-1.8-101.7-44.3-139.3-2.4-2.1-5.4-3.5-8.7-4.4 5.6 8 11.5 15.7 16.6 23.9 25.4 41.3 27 84.5 9.8 129.1-6.3 16.2-12.4 32.4-15.4 49.8-4 23.3 1.9 43.4 15.7 61.8 9.9 13.2 20.2 26 29.4 39.7 13.6 20 13.6 41.5 2.5 62.4-9 16.9-19.8 32.9-29.6 49.4-9 15.1-16.4 30.8-15.2 49.1 1 15.6 7.8 29.3 14.7 43 8.8 17.5 18.1 34.7 26.1 52.5 3.6 8 4.5 17.3 6.2 26.1 0.3 1.6-0.7 4.7-1.9 5.2-8.9 3.9-18 7.4-26.8 11-1.5-10.1-1.5-19.9-4.6-28.7-5.7-16-13-31.4-20-46.9-5.3-11.8-11.4-23.3-17-34.9-10.1-20.9-8.5-41.5 2.8-61.3 8.3-14.4 17.5-28.3 26.4-42.4 8.2-13 15.4-26.4 18.1-41.7 3.4-19.4-2.8-36.4-14.1-51.9-8-10.9-16.6-21.4-24.8-32.2-18.5-24.3-19.7-51-9.8-78.6 6.3-17.7 14.4-34.7 20.9-52.3 16.9-45.4 2.8-101.7-33.3-134.3-4.6-4.1-9.4-8-14-12.1l-2.1 1.5c1.2 2.4 2.1 5.1 3.7 7.3 12.6 16.2 21.4 34.1 26 54.1 7.3 31.9 2.5 62.1-10.9 91.6-7.8 17.2-15.1 34.8-20.9 52.8-9.7 30-2.3 57.2 17 81.6 6.8 8.6 13.6 17.3 19.9 26.3 14.9 21.3 15.7 43.9 3.7 66.4-8.4 15.7-18.6 30.3-28.1 45.4-9.5 15-18 30.2-19.9 48.4-1.5 14.6 2.3 28.1 8.1 41 7.9 17.9 17 35.2 25.2 53 7.1 15.6 12.3 31.8 11.8 49.3-0.2 9.3-0.3 9.4-9.3 11.6-7.5 1.8-15.1 3.3-22.8 5v-16c0.2-17.5-3.8-34.3-10.6-50.2-7.8-18.2-16.3-36.1-24.9-53.9-13.1-27-9.1-52.3 6.6-76.8 11.5-18 23.2-35.9 34.2-54.2 5.8-9.6 9.3-20.3 9.7-31.7 0.6-19.2-8.3-34.6-20-48.9-9.4-11.6-19-23.1-23.9-37.5-1.4-4.2-2.6-8.6-3.3-13-1.4-8.9-6.4-12.5-15.1-10.6-9.1 2.1-18.2 5.3-27.4 5.8-10 0.5-20.1-1.4-30.1-2.7-4-0.5-7.9-2.1-11.9-3.1-7.1-1.7-12.8 1.4-13.7 8.7-2.4 18.6-12.5 33-23.5 47.2-7 9.1-13.9 18.6-19 28.9-9.9 20.1-5.3 39.9 5.2 58.4 7.2 12.8 16 24.7 23.6 37.3 7.2 12.1 14.7 24.1 20.3 37 8.4 19.6 3.7 38.8-4.8 57.4-8.6 18.8-17.6 37.5-25.6 56.6-7.4 17.6-10.3 36.1-8.4 55.2 0.2 1.7 0 3.5 0 6.2-10-2.3-19.6-4-28.8-6.8-1.8-0.5-3.3-4.9-3.5-7.6-1.1-13.3 1.3-26.3 6.5-38.5 7.3-17.3 16.2-33.9 23.5-51.1 5.6-13.3 11.1-26.8 14.3-40.8 3.7-16.5-1.4-32.4-9.7-46.8-8.2-14.3-18-27.6-26.2-41.9-6.3-10.9-12.5-22.2-16.8-34.1-6.5-18.1-2.9-35.6 8.1-51.3 8.5-12.2 17.7-24 26.4-36.1 16.5-23.3 19.6-49 10.7-75.5-7-20.7-16.2-40.7-24.4-61-17.6-43.7-12.6-85.3 11.9-125 2.6-4.2 5.8-7.9 8.5-12 1-1.6 1.1-3.6 1.7-5.5-1.7 0.6-3.6 0.7-4.9 1.7-23.2 18-38.8 41.2-46.6 69.6-9 33.1-2.9 64.3 11.1 94.7 7.3 15.8 14.2 31.7 17.3 49 3.9 21.7-0.4 41.3-13.4 58.9-9.1 12.3-18.6 24.3-27.6 36.6-7.9 10.8-12.7 23-13.3 36.4-0.6 13.2 3 25.8 9.5 37.2 10 17.3 20.7 34.1 31.1 51.2 7.1 11.6 12.8 23.8 14.1 37.6 1.1 11.8-2.1 23-7 33.5-7.4 15.9-15.7 31.5-23.6 47.2-9.4 18.9-17.3 38.2-16.3 60 0 0.5-0.3 1-0.7 2.2-9.2-3.7-18.4-6.9-27.2-11.1-1.5-0.7-2.6-5.2-2-7.4 3.3-12.2 6.1-24.7 11.2-36.2 8-17.9 17.7-35 26.7-52.3 13.4-25.9 11.1-51-3.7-75.4-7-11.6-14.5-22.9-21.6-34.4-8.5-13.7-16.2-27.7-18.2-44.2-1.4-11.8 0.8-23 7-32.6 9.2-14.3 19.8-27.7 29.8-41.5 7.8-10.8 15.4-21.9 18-35.3 3.3-17 0.9-33.6-4.5-49.8-5.4-16.1-12.1-31.9-16.6-48.2-12.7-45.6-3.4-87.2 25.2-124.6 2.7-3.6 5.4-7.2 8.2-10.8-0.3-0.4-0.7-0.9-1-1.3-5.6 4.5-11.7 8.6-16.8 13.7-30 29.8-43.5 66.1-40.7 108.2 1.3 19.4 7.9 37.5 14.6 55.5 4.9 13.2 8.8 26.7 9.5 41 0.5 12.2-2.7 23.4-9.6 33.2-9.5 13.5-20 26.2-29.2 39.9-6.2 9.2-11.9 19-15.8 29.2-6.3 16.6-3.5 33.4 4.3 48.8 8.2 16.2 18 31.6 26.9 47.5 4.3 7.7 8.4 15.5 11.9 23.6 7.2 16.9 3.7 33.4-3.8 49.2-9.2 19.3-19.2 38.1-27.9 57.6-4.6 10.4-7.1 21.8-10.8 33.4-6.8-3.8-14.4-7.6-21.4-12.4-1.6-1.1-1.9-6-0.9-8.5 4.6-11.4 9.1-22.9 14.9-33.7 8.5-16 19.8-30.5 25.2-48.2 5.4-17.7 1.8-33.8-8.5-48.9 6.3 25.8-5.7 46-19.5 65.7-10.5 14.9-22.5 28.8-29.2 46.1-1.6 4.2-2.7 8.5-4.2 13.3-1.4-0.7-2.8-1.1-4-2-8.1-5.9-16.1-11.9-24.2-17.8-3.2-2.4-3.5-4.8-1-7.8 5.3-6.3 10.8-12.9 16.9-20.3z m53-597.1c19.6 25.5 35.9 50.8 48.9 78.2 3.9 8.1 5.2 8.3 13.5 4.6 11.4-5.1 22.8-10.3 34.5-14.4 30.5-10.7 61.9-16.5 94.2-18.3 25.3-1.4 50.2 0.6 75 4.7 31.1 5.2 60.7 15 89 28.6 6.8 3.3 8.3 2.3 11.8-4.3 8.6-15.8 17.1-31.7 26.3-47.1 6.4-10.7 14.1-20.6 21.9-31.8-31.3 2.3-58.6 12.3-83.7 31.7 9.5-27 22.2-51.2 37.6-75-39.6 4.5-74.1 17.6-102.4 45.5-6.5-16.7-12.8-32.7-18.8-48.8-0.5-1.5 1-4.5 2.5-5.8 9.4-8.6 19.1-16.9 28.6-25.3 3.7-3.3 7.2-6.8 11.5-10.9-2.2-0.4-3.1-0.7-4-0.8-16.2-1.2-32.5-2.7-48.7-3.3-5.1-0.2-7.1-2.2-8.8-6.4-6.7-16.2-13.8-32.2-21-49-1.3 2.7-2.4 4.6-3.2 6.5-6.3 14.6-12.7 29.1-18.8 43.8-1.4 3.3-2.9 4.8-6.8 5-11.6 0.4-23.1 1.4-34.7 2.3-6.1 0.5-12.2 1.1-18.4 1.7-0.4 0.6-0.8 1.1-1.2 1.7 1.3 0.8 2.8 1.3 3.9 2.3 12.2 10.8 24.4 21.6 36.7 32.4 2.4 2.1 3 4.1 1.7 7.2-2.8 6.7-5.1 13.5-7.7 20.3-3.4 8.9-6.9 17.7-10.6 27.2-28.5-28-63-41-102.4-45.5 15.3 23.8 28.2 47.7 37.4 74.9-24.8-19.6-52-29.6-83.8-31.9z m294.1 126.3c-0.8-3-1.1-5.3-1.9-7.3-6.4-16-17.7-27.7-32.4-36.1-26.4-15.1-54.6-17.7-83.4-9-23.4 7.1-42.1 20.7-52.3 43.9-1.1 2.5-1.5 5.3-2.3 8.5 7.4-1.6 13.5-3.6 19.8-4.2 6.6-0.6 13.3-0.4 19.9 0.2 19.3 1.8 30.1 12.1 32.4 31.2 1.1 8.9 0.2 17.8-3.1 26.7-1.6-0.7-2.6-0.9-3.3-1.4-7.7-6.3-15.6-6.2-24.7-2.8-8.7 3.2-17.6 2.6-26.2-1.9-7.7-4-14.2-1.2-15.5 7.3-1.2 7.8-1.4 16.1 0 23.9 6.4 37.2 24.7 67.3 56.5 88.4 10.2 6.7 21.8 10.2 34.1 9 16.9-1.6 30.8-9.9 42.7-21.5 22.9-22.3 37.2-49.3 41.3-81.1 0.8-6.4 0-13.4-1.5-19.8-1.9-7.9-7.2-9.4-14.3-5.7-2.7 1.4-6 2.7-8.9 2.6-6.9-0.4-14-0.9-20.6-2.7-8.5-2.3-11.1-1.7-14.9 6.3-0.9 1.9-1.6 4.1-2.9 5.7-1.6 2-3.7 3.5-6.1 5.7-6.9-17.3-7.1-33.7-2.6-50.1 0.9-3.3 3.2-6.9 5.9-9.1 12.8-10.1 27.6-13.6 43.7-11.2 6.4 1.1 12.8 2.8 20.6 4.5z m349.5 98.4c-1.9-2.2-3.5-3.9-5-5.7-13.5-16.8-27.9-33-40.1-50.7-24.1-34.9-39.2-73-36.8-116.4 0.1-2.5-1.1-5.1-1.7-7.6-2.8 0.9-6.1 1.1-8.4 2.7-15.5 11.4-27 26.3-34.5 43.9-4 9.4-6.9 19.3-10.4 29.4-33.1-19.5-68-24.8-106.1-10.6 2.6 2 4.3 3.3 5.9 4.6 7.9 6.4 16.1 12.5 23.8 19.2 20.4 17.9 38.5 38.1 53.9 60.5 2 2.9 3.6 3.7 7.6 3 9.5-1.7 19.3-3 29-2.8 18.8 0.3 35.5 8.4 52.4 15.7 13.3 5.7 26.7 11.2 40.4 15.6 9.6 3 19.7 3.1 30-0.8zM318.6 348.1c-38.3-14.2-73.4-8.6-107 11.2-5.8-29.8-19.3-54.6-43-73.2-2.4-1.9-5.9-2.4-8.9-3.5-0.7 2.9-2.2 5.8-2.1 8.6 1.4 26.4-4.1 51.5-14.5 75.5-13 30-32 56.1-53.5 80.6-4.6 5.2-9.1 10.4-14.1 16.2 12.9 4.2 24.8 3.2 36-1 17-6.4 33.5-14 50.4-20.9 20.8-8.5 42.1-12.7 64.2-6.2 4.8 1.4 7 0 9.5-3.7 16.4-23.7 35.5-44.9 57.7-63.4 8.2-6.7 16.3-13 25.3-20.2z m113.5 47.3c15-10.9 30.6-5.1 47.8-1.1-2.5-4.1-3.5-6.9-5.4-8.8-10.6-10.6-23.8-12.4-37.9-10.4-4.3 0.6-8.4 2.6-9.6 7.4-1.2 5 0.4 9.3 5.1 12.9z m158.8-0.1c8.9-8.7 7.2-17.2-4-19.8-12.5-2.9-24.4-1.1-35 7-3.9 3-5 6.2-2.7 10.8 14.1-3.4 28.4-8.6 41.7 2z" fill="#0C7045" p-id="1259"></path><path d="M303.5 238.5c31.8 2.4 59 12.3 84 31.6-9.1-27.2-22.1-51.2-37.4-74.9 39.4 4.5 73.9 17.5 102.4 45.5 3.7-9.5 7.2-18.3 10.6-27.2 2.6-6.8 5-13.6 7.7-20.3 1.3-3.1 0.7-5-1.7-7.2-12.3-10.7-24.4-21.6-36.7-32.4-1.1-1-2.6-1.6-3.9-2.3 0.4-0.6 0.8-1.1 1.2-1.7 6.1-0.6 12.2-1.3 18.4-1.7 11.6-0.9 23.1-1.8 34.7-2.3 3.9-0.1 5.4-1.7 6.8-5 6.1-14.7 12.5-29.2 18.8-43.8 0.8-2 1.9-3.8 3.2-6.6 7.2 16.8 14.3 32.9 21 49.1 1.8 4.2 3.7 6.2 8.8 6.4 16.3 0.6 32.5 2.1 48.7 3.3 0.9 0.1 1.8 0.3 4 0.8-4.4 4.1-7.9 7.6-11.5 10.9-9.5 8.5-19.2 16.7-28.6 25.3-1.5 1.3-3 4.3-2.5 5.8 5.9 16.1 12.3 32.1 18.8 48.8 28.3-27.9 62.7-41 102.4-45.5-15.5 23.8-28.1 48-37.6 75 25-19.3 52.3-29.4 83.7-31.7-7.8 11.2-15.5 21.1-21.9 31.8-9.3 15.4-17.8 31.3-26.3 47.1-3.6 6.6-5 7.6-11.8 4.3-28.4-13.7-57.9-23.5-89-28.6-24.8-4.1-49.7-6.1-75-4.7-32.3 1.8-63.7 7.6-94.2 18.3-11.7 4.1-23.1 9.4-34.5 14.4-8.3 3.7-9.6 3.6-13.5-4.6-13.3-27-29.5-52.4-49.1-77.9z m160.5 17c0.2 0.6 0.5 1.3 0.7 1.9 31-5.1 61.9-5.4 92.8 0.1 0.4-0.6 0.7-1.3 1.1-1.9-15.7-12.1-31.5-24.2-47.3-36.3-15.8 12.1-31.5 24.2-47.3 36.2z" fill="#FFFFFF" p-id="1260"></path><path d="M597.6 364.9c-7.8-1.7-14.2-3.4-20.7-4.4-16.1-2.5-30.9 1.1-43.7 11.2-2.7 2.1-4.9 5.7-5.9 9.1-4.5 16.4-4.3 32.8 2.6 50.1 2.4-2.2 4.5-3.8 6.1-5.7 1.3-1.6 2-3.8 2.9-5.7 3.9-8 6.4-8.5 14.9-6.3 6.7 1.8 13.7 2.3 20.6 2.7 2.9 0.2 6.2-1.2 8.9-2.6 7.2-3.7 12.4-2.2 14.3 5.7 1.5 6.4 2.3 13.3 1.5 19.8-4.1 31.9-18.4 58.8-41.3 81.1-11.9 11.6-25.9 19.8-42.7 21.5-12.3 1.2-23.9-2.3-34.1-9.1-31.8-21.1-50.1-51.2-56.5-88.5-1.3-7.8-1.2-16.1 0-23.9 1.3-8.4 7.8-11.2 15.5-7.3 8.6 4.4 17.5 5.1 26.2 1.9 9.1-3.4 17.1-3.5 24.7 2.8 0.7 0.6 1.7 0.8 3.3 1.4 3.3-8.9 4.2-17.8 3.1-26.7-2.3-19-13.1-29.4-32.4-31.2-6.6-0.6-13.3-0.9-19.9-0.2-6.3 0.6-12.4 2.6-19.8 4.2 0.8-3.1 1.2-6 2.3-8.5 10.2-23.2 28.9-36.9 52.3-44 28.8-8.8 57-6.2 83.4 9 14.7 8.4 26 20.1 32.4 36.1 0.9 2.2 1.3 4.5 2 7.5z m-50.5 115.2c-23 2.5-44.9 4.1-66.6 0.1-1.1-0.2-2.4 0.6-3.7 1.1 23.2 34.7 48.1 31.1 70.3-1.2zM501 451.5c-0.1-0.6-0.3-1.3-0.4-1.9-3.1 1.4-6.4 2.6-9.3 4.3-0.5 0.3-0.1 4.1 0.8 4.5 11.3 5.2 22.7 8.9 34.6 1.6 2.2-1.3 4.3-2.7 6.5-4.1-2.4-1.7-4.8-3.6-7.3-5-1.1-0.6-2.7-0.6-4.1-0.5-7 0.2-13.9 0.7-20.8 1.1zM947.1 463.3c-10.3 4-20.4 3.9-29.9 0.8-13.7-4.4-27.2-9.9-40.4-15.6-16.9-7.3-33.6-15.5-52.4-15.7-9.7-0.1-19.5 1.1-29 2.8-4 0.7-5.6 0-7.6-3-15.5-22.4-33.5-42.6-53.9-60.5-7.7-6.7-15.8-12.9-23.8-19.2-1.6-1.3-3.3-2.6-5.9-4.6 38.2-14.3 73-8.9 106.1 10.6 3.5-10.1 6.4-20 10.4-29.4 7.5-17.7 19-32.5 34.5-44 2.2-1.7 5.6-1.8 8.4-2.7 0.6 2.5 1.9 5.1 1.7 7.6-2.4 43.5 12.7 81.6 36.8 116.5 12.2 17.7 26.7 33.9 40.1 50.7 1.3 1.9 2.9 3.6 4.9 5.7zM318.6 348.2c-9 7.2-17.2 13.5-25.1 20.1-22.2 18.5-41.3 39.7-57.7 63.4-2.5 3.7-4.7 5.1-9.5 3.7-22.1-6.5-43.5-2.3-64.2 6.2-16.8 6.9-33.4 14.5-50.4 20.9-11.3 4.2-23.2 5.2-36 1 5-5.8 9.5-11 14.1-16.2 21.4-24.5 40.4-50.6 53.5-80.6 10.4-24 15.9-49.1 14.5-75.5-0.1-2.8 1.3-5.7 2.1-8.6 3 1.1 6.5 1.6 8.9 3.5 23.7 18.6 37.2 43.4 43 73.2 33.5-19.7 68.5-25.3 106.8-11.1z" fill="#FFFFFF" p-id="1261"></path><path d="M432.1 395.5c-4.6-3.6-6.3-7.9-5.1-12.9 1.1-4.9 5.3-6.8 9.6-7.4 14.1-2.1 27.3-0.2 37.9 10.4 1.9 1.9 3 4.7 5.4 8.8-17.3-4-32.9-9.8-47.8 1.1zM590.9 395.4c-13.3-10.6-27.6-5.4-41.8-2.1-2.3-4.5-1.1-7.8 2.7-10.8 10.6-8.1 22.5-9.8 35-7 11.3 2.7 12.9 11.2 4.1 19.9z" fill="#FFFFFF" p-id="1262"></path><path d="M464 255.5c15.7-12 31.4-24 47.4-36.3 15.8 12.1 31.5 24.2 47.3 36.3-0.4 0.6-0.7 1.3-1.1 1.9-30.9-5.5-61.9-5.1-92.8-0.1-0.3-0.5-0.5-1.2-0.8-1.8zM547.1 480.1c-22.2 32.3-47.1 35.8-70.3 1.2 1.3-0.4 2.6-1.3 3.7-1.1 21.7 4 43.6 2.4 66.6-0.1zM501 451.5c6.9-0.4 13.8-0.8 20.7-1.1 1.4-0.1 3-0.1 4.1 0.5 2.6 1.5 4.9 3.3 7.3 5-2.2 1.4-4.3 2.7-6.5 4.1-11.9 7.4-23.4 3.7-34.6-1.6-0.8-0.4-1.3-4.2-0.8-4.5 2.9-1.8 6.2-2.9 9.3-4.3 0.2 0.6 0.3 1.2 0.5 1.9z" fill="#0C7045" p-id="1263"></path><path d="M784.1 821c-4.8 6-8.5 10.7-11.8 14.9 6.9 8.3 13.5 16.2 20.8 24.9 5.3-4.3 10.5-8.7 15.6-13.2-8.3-8.8-16.2-17.5-24.6-26.6zM148.8 707.9c9-7.7 19-12.4 31-11.9 0.7 0 1.5-0.3 2.7-0.5-1.2-7.4-2-14.7-3.8-21.8-0.4-1.5-4.1-3-6.4-3-14.7 0.1-26.5 7-37.7 15.8-6.7 5.3-14.2 9.6-21.6 14-3.6 2.1-6.4 2-8.6-0.6-0.7-0.9 3.6 9.5 13.5 27.6 13.4-2.9 21.8-11.8 30.9-19.6zM836 793c-6.2-5.3-13.1-9.9-19.8-14.5-3.2-2.2-5.7-1.3-7.5 2.5-2.1 4.4-4.6 8.6-7.2 13.4 14.3 5.6 23.3 16.6 32.2 29.2 5.2-5.4 10.3-10.9 15.2-16.6-4.6-5.1-8.3-10.1-12.9-14zM133.5 583.6c14.1-8.8 29-15.5 46.2-15.9 2.5-11.2 4.9-22.2 7.5-33.5-17.1-1.7-32 3.6-46.5 11-14.1 7.2-28 14.8-42.6 20.9-8.8 3.7-18.6 4.9-28.2 2.2-1.2-0.3-2.8-1.7-3.4-2.9 1.5 12.4 3.4 24.7 5.9 36.8 23.5 3 42.5-7 61.1-18.6zM141.4 645.2c9.9-6.5 21-10.5 33.7-10.6V605c-13.4-0.6-25.5 3.5-36.9 9.9-10.1 5.6-19.4 12.7-29.9 17.5-7.2 3.3-15.8 3.9-23.8 5.4-1.3 0.2-3.9-1.3-4.3-2.5 3.1 10.9 6.6 21.5 10.4 32 20.9 0.4 35.3-11.9 50.8-22.1zM952.1 568.7c-14.2 2.2-27.4-1.1-39.9-7.2-11.8-5.7-23.1-12.5-34.7-18.5-12.9-6.6-26.6-10.4-41.8-8.8 2.3 10.4 4.4 20.7 6.8 30.8 0.3 1.1 2 2.5 3.1 2.6 20.3 0.8 36.6 11.7 53.2 21.5 15.5 9.2 31.7 14.8 51.1 13.3 2.4-11.7 4.3-23.5 5.7-35.4-0.7 0.9-1.8 1.4-3.5 1.7zM904.6 627.4c-12.5-7.8-24.3-16.8-39-20.2-5.7-1.3-11.5-1.9-17.9-2.9v30.4c16.4 0.1 29.8 7.5 42.6 16.6 12 8.5 24.5 16 41.2 16.1 3.6-9.8 6.8-19.7 9.7-29.7-14 1.5-25.6-3.4-36.6-10.3zM64 537.3h12.6c18.3-0.1 34.7-6.8 50.6-15.2 14.9-7.8 29.2-17 46.1-20 7.1-1.3 14.4-1.2 21.6-2 1.6-0.2 3.9-1 4.5-2.2 5.4-11.2 10.6-22.6 16.2-34.7-2.8-0.5-5.6-1-8.4-1.3-24.9-2.5-47 5.7-68.4 17.3-16.2 8.8-32.5 17.6-51.2 19.8-6.8 0.8-13.7 0.5-20.6 0.6-2.3 0.1-3.2-0.9-3.4-2.2-0.2 5.1-0.3 10.3-0.3 15.5 0.1 8.2 0.3 16.4 0.7 24.4zM953.2 499.9c-20.2 1-38.6-4.7-56.3-13.9-18.2-9.5-36.1-20-56.8-23.3-10.9-1.7-21.8-1.3-33.2 0.4 6.1 12.9 11.7 24.9 17.7 37.5 25.6-3.3 47.3 8.6 69 20.5 19.4 10.7 39.6 18 62.3 15.8 0.7-0.1 1.5 0.1 2.3 0.3 0.4-8 0.7-16.1 0.7-24.2 0-5-0.1-9.9-0.2-14.8-1.1 1.2-2.9 1.6-5.5 1.7zM912.9 701.3c-5.8-2.6-11.7-5.4-17.1-8.9-6.7-4.4-12.8-9.8-19.5-14.2-7.8-5.2-16.8-7.4-26.2-7.9-4-0.2-6.5 0.4-6.8 5.6-0.3 6.4-2.1 12.6-3.3 19.4 5 0.7 9.9 0.9 14.5 2 9.7 2.2 17.1 8.4 24.3 14.9 7.3 6.5 14.7 12.9 25.4 15 4.7-8.7 9.2-17.5 13.3-26.5-0.7 0.7-3.4 1.2-4.6 0.6z" fill="#FFFFFF" p-id="1264"></path><path d="M872.7 749.4c-11.5-10.9-23.3-21-40.5-22.3 2.4-8.8 4.5-16.8 6.8-25.3-8.1-1.2-15.7-2-23-3.6-18.6-4-34.8-12.7-49-25.3-1-0.9-2-2.6-1.9-3.9 1.1-22.1-10.8-38.7-22.9-55.3-10.2-13.9-20.8-27.6-30.6-41.8-9.1-13.2-6.1-27.9-2.8-42.1 3.4-14.8 8.4-29.4 11.2-44.3 9.4-50.2-5.7-92.8-41.7-128.5-2.9-2.8-6.2-5.3-10.3-7 2.1 2.9 4.2 5.7 6.3 8.7 14.9 21.2 26.4 43.9 30.4 69.9 3.8 24.7-0.7 48.3-7.9 71.8-4.2 13.8-7.7 27.9-10 42.1-3.5 20.7 5.7 37.7 17.7 53.6 8.9 11.9 18.1 23.7 26.7 35.9 7 9.9 12 20.8 13 33 1 11.5-1.8 22.7-6.2 33.2-4 9.5-8.8 18.8-13.5 28-1.7 3.4-1.7 5.5 1.5 8.3 19.4 17.1 40.8 30.3 66.6 35.3 5.3 1 11.1 1.4 16.3 0.4 3.3-0.6 6.5-4 8.8-6.8 2-2.5 3.2-5.9 4-9.1 1.4-5.5 5.4-6.4 9.4-4.5 7.3 3.5 14.8 7.1 20.9 12.4 6.3 5.4 10.9 12.8 16.9 20.1 5.6-7.4 11-15 16.1-22.8-4.6-3.7-8.7-6.7-12.3-10.1zM266.8 870.8c-1.6 4.2-2.7 8.5-4.2 13.3 7.1 4.8 14.4 9.3 21.8 13.7-1.2-1.6-1.4-5.9-0.5-8.1 4.6-11.4 9.1-22.9 14.9-33.7 8.5-16 19.8-30.6 25.2-48.2 5.4-17.7 1.8-33.8-8.5-48.9 6.3 25.8-5.7 46-19.5 65.7-10.5 15-22.5 29-29.2 46.2zM221.4 794.4c-3-5.4-5.7-10.7-8.9-15.8-0.6-0.9-3.5-0.9-5-0.4-9.9 3.5-17.2 10.6-24.2 18.2-2.9 3.2-5.7 6.4-9 10.2 4.9 5.6 9.9 11.1 15.1 16.4 8.6-11.9 17.3-23 32-28.6zM233.4 856.6c5.5-6.6 11-13.2 17.1-20.6-3.2-4.1-6.8-8.7-10.6-13.7-10.7 5.8-17.1 15.7-24.8 25.3 5.5 4.9 11.2 9.7 17 14.3-0.8-1.7-0.3-3.4 1.3-5.3zM151.6 778.5c11.7-9.1 23.1-18 34.6-26.8 1.3-1 3.2-1.3 4.9-1.8 5-1.5 8.8-0.9 10.2 5.1 0.6 2.4 2 4.7 3.1 7 3.4 7.5 6.3 9.1 14.7 8.9 19.2-0.4 36.3-7.6 52.3-17.4 9.1-5.7 17.3-12.8 26-19.2 3-2.2 2.9-4.4 1.2-7.5-7.4-13.8-14.5-27.7-18.2-43.1-4-16.4-1.5-31.7 7.8-45.5 10.8-16.1 22.6-31.5 34-47.3 10.4-14.5 17.2-30.4 13.9-48.4-3-16.5-7.6-32.7-12.1-48.8-4.8-17.1-8.5-34.4-7.4-52.1 1.7-27.6 11.6-52.5 26.8-75.3 3.5-5.2 7.1-10.2 9.8-16.3-3.7 2.9-7.7 5.5-10.9 8.8-23.4 24.5-38.4 53-41.9 87.2-2.5 24.4 3.5 47.4 9.9 70.5 3 10.7 5.1 21.7 6.6 32.7 1.6 11.6-4 21.4-10.5 30.4-10 13.8-20.7 27.2-30.7 40.9-10.4 14.3-19 29.3-17.9 48 0.1 1.5-1.4 3.6-2.7 4.7-18.8 16.2-40.3 25.8-65.3 27.3-1.7 0.1-3.5 0.3-6.1 0.6 2.3 8.6 4.5 16.8 7 25.9-22.8 1.2-35.4 19.4-52.4 32.3 4.2 6.6 8.7 13 13.3 19.2zM424 597.9c16.5-23.3 19.6-49 10.7-75.6-7-20.7-16.2-40.7-24.4-61-17.6-43.7-12.6-85.4 11.9-125.1 2.6-4.2 5.8-7.9 8.5-12 1-1.6 1.1-3.6 1.7-5.5-1.7 0.6-3.6 0.7-4.9 1.7-23.2 18-38.8 41.2-46.6 69.6-9 33.1-2.9 64.3 11.1 94.8 7.3 15.8 14.2 31.7 17.3 49.1 3.9 21.7-0.4 41.3-13.4 59-9.1 12.3-18.6 24.3-27.6 36.6-7.9 10.8-12.7 23.1-13.3 36.4-0.6 13.2 3 25.8 9.5 37.2 10 17.3 20.7 34.2 31.1 51.2 7.1 11.6 12.8 23.8 14.1 37.6 1.1 11.8-2.1 23-7 33.5-7.4 15.9-15.7 31.5-23.6 47.2-9.4 18.9-17.3 38.3-16.3 60 0 0.4-0.2 0.8-0.4 1.5 12.5 4.4 25.3 8.3 38.3 11.6-1.5-1.2-2.6-4.9-2.8-7.2-1.1-13.3 1.3-26.4 6.5-38.5 7.3-17.3 16.2-33.9 23.5-51.2 5.6-13.3 11.1-26.8 14.3-40.8 3.7-16.5-1.4-32.4-9.7-46.8-8.2-14.3-18-27.7-26.2-41.9-6.3-10.9-12.5-22.2-16.8-34.1-6.5-18.1-2.9-35.6 8.1-51.3 8.5-12.1 17.8-23.8 26.4-36z" fill="#FFFFFF" p-id="1265"></path><path d="M511.3 959.6c27.9 0 55.2-2.6 81.7-7.4v-15.3c0.2-17.5-3.8-34.3-10.6-50.2-7.8-18.2-16.3-36.1-24.9-53.9-13.1-27-9.1-52.3 6.6-76.8 11.5-18 23.2-35.9 34.2-54.2 5.8-9.6 9.3-20.3 9.7-31.7 0.6-19.2-8.3-34.6-20-48.9-9.4-11.6-19-23.1-23.9-37.5-1.4-4.2-2.6-8.6-3.3-13-1.4-8.9-6.4-12.5-15.1-10.6-9.1 2.1-18.2 5.3-27.4 5.8-10 0.5-20.1-1.4-30.1-2.7-4-0.5-7.9-2.1-11.9-3.1-7.1-1.7-12.8 1.4-13.7 8.7-2.4 18.6-12.5 33-23.5 47.3-7 9.1-13.9 18.6-19 28.9-9.9 20.1-5.3 39.9 5.2 58.4 7.2 12.8 16 24.7 23.6 37.4 7.2 12.1 14.7 24.1 20.3 37 8.4 19.6 3.7 38.8-4.8 57.4-8.6 18.8-17.6 37.5-25.6 56.6-7.4 17.6-10.3 36.1-8.4 55.3 0.1 1.6 0 3.1 0 5.4 26.2 4.5 53.2 7.1 80.9 7.1zM682.2 475.4c13.6-55.3-1.8-101.8-44.3-139.4-2.4-2.1-5.4-3.5-8.7-4.4 5.6 8 11.5 15.7 16.6 23.9 25.4 41.3 27 84.5 9.8 129.1-6.3 16.2-12.4 32.4-15.4 49.8-4 23.3 1.9 43.4 15.7 61.9 9.9 13.2 20.2 26.1 29.4 39.7 13.6 20 13.6 41.5 2.5 62.4-9 17-19.8 32.9-29.6 49.4-9 15.1-16.4 30.8-15.2 49.1 1 15.6 7.8 29.3 14.7 43 8.8 17.5 18.1 34.7 26.1 52.5 3.6 8 4.5 17.3 6.2 26.1 0.2 1.2-0.3 3.3-1.1 4.4 9-3.9 17.9-8.1 26.5-12.5-0.6-3.5-1-6.4-1.6-9.3-4.4-22.1-16-41.2-25.7-61-4.7-9.5-9.2-19-13.3-28.7-6.5-15.5-6.1-31.1 1.6-46 7.3-14.1 15.6-27.7 23.6-41.4 8.4-14.2 16.6-28.4 19.4-45.1 2.2-13.2 1.3-26.3-5.6-37.6-9.8-15.8-21-30.7-31.8-45.9-8.5-12-18.2-23.8-18.7-39.2-0.4-10.6 0.8-21.6 3.5-31.9 4.2-16.3 11.3-32.2 15.4-48.9z" fill="#FFFFFF" p-id="1266"></path><path d="M587.5 524.7c-9.7 30.1-2.3 57.2 17 81.7 6.8 8.6 13.6 17.3 19.9 26.3 14.9 21.3 15.7 43.9 3.7 66.4-8.4 15.7-18.6 30.4-28.1 45.4s-18 30.2-19.9 48.4c-1.5 14.6 2.3 28.1 8.1 41 7.9 17.9 17 35.3 25.2 53 7.2 15.6 12.3 31.8 11.8 49.3-0.1 5.6-0.2 7.9-2.3 9.3 13-3.3 25.7-7.2 38.2-11.7-1.4-9.8-1.5-19.3-4.5-27.8-5.7-16-13-31.4-20-46.9-5.3-11.8-11.4-23.3-17-34.9-10.1-20.9-8.5-41.6 2.8-61.3 8.3-14.4 17.5-28.3 26.4-42.4 8.2-13 15.4-26.4 18.1-41.7 3.4-19.4-2.8-36.5-14.1-51.9-8-10.9-16.6-21.4-24.8-32.2-18.5-24.3-19.7-51-9.8-78.7 6.3-17.7 14.4-34.7 20.9-52.3 16.9-45.5 2.8-101.7-33.3-134.4-4.6-4.1-9.4-8-14-12.1l-2.1 1.5c1.2 2.4 2.1 5.1 3.7 7.3 12.6 16.2 21.4 34.1 26 54.2 7.3 31.9 2.5 62.1-10.9 91.7-7.9 17.2-15.2 34.8-21 52.8zM333.1 916.5c3.3-12.2 6.1-24.7 11.2-36.2 8-17.9 17.7-35 26.7-52.4 13.4-25.9 11.1-51-3.7-75.5-7-11.6-14.5-22.9-21.6-34.4-8.5-13.7-16.2-27.7-18.2-44.2-1.4-11.8 0.8-23 7-32.6 9.2-14.3 19.8-27.7 29.8-41.6 7.8-10.8 15.4-21.9 18-35.3 3.3-17 0.9-33.6-4.5-49.8-5.4-16.1-12.1-31.9-16.6-48.2-12.7-45.6-3.4-87.2 25.2-124.7 2.7-3.6 5.4-7.2 8.2-10.8-0.3-0.4-0.7-0.9-1-1.3-5.6 4.5-11.7 8.6-16.8 13.7-30 29.9-43.5 66.1-40.7 108.3 1.3 19.4 7.9 37.5 14.6 55.5 4.9 13.3 8.8 26.7 9.5 41 0.5 12.2-2.7 23.4-9.6 33.2-9.5 13.5-20 26.2-29.2 39.9-6.2 9.2-11.9 19-15.8 29.3-6.3 16.6-3.5 33.4 4.3 48.8 8.2 16.2 18 31.6 26.9 47.5 4.3 7.7 8.4 15.5 11.9 23.7 7.2 16.9 3.7 33.4-3.8 49.2-9.2 19.3-19.2 38.1-27.9 57.6-4.5 10.2-7 21.3-10.6 32.7 9.1 4.7 18.4 9.1 27.9 13.2-1.1-1.4-1.7-4.8-1.2-6.6zM760.2 884.1c-1.4-4.8-2.1-9.3-4.2-12.9-7.4-12.9-14.9-25.7-23.2-38-8.8-13.2-18.7-25.6-23.8-41-3-9.1-4.2-18.3-2.2-27.7 0.3-1.3 0-2.7 0-5.2-10.4 15.9-14.5 32.3-7.6 49.1 6.3 15.3 14.9 29.7 23 44.2 6.8 12.1 13.9 24.1 17 37.8 0.7 2.9 0.8 5.2-0.4 7.2 7.3-4.4 14.4-8.9 21.4-13.5z" fill="#FFFFFF" p-id="1267"></path></svg>